<svg xmlns="http://www.w3.org/2000/svg" viewBox="0 0 300 300"><defs><style>.cls-1{fill:#0e7147;}</style></defs><g id="Layer_2" data-name="Layer 2"><g id="logos"><g id="check-g"><path id="checkmark" class="cls-1" d="M233.88,90.79a12.35,12.35,0,0,0-17.46,0l-92,92L83.84,142.14l-.26.26a12.35,12.35,0,1,0-17.46,17.46l49.35,49.35a12.35,12.35,0,0,0,17.46,0l100.95-101A12.33,12.33,0,0,0,233.88,90.79Z"/><path class="cls-1" d="M150,0A150,150,0,1,0,300,150,150,150,0,0,0,150,0Zm0,260A110,110,0,1,1,260,150,110.13,110.13,0,0,1,150,260Z"/></g></g></g></svg>