<svg xmlns="http://www.w3.org/2000/svg" viewBox="0 0 500 500"><defs><style>.cls-1{fill:#0e7147;}.cls-2{fill:#404040;}</style></defs><g id="Layer_2" data-name="Layer 2"><g id="logos"><g id="circle-confirmation"><path class="cls-1" d="M250,0C111.93,0,0,111.93,0,250S111.93,500,250,500,500,388.07,500,250,388.07,0,250,0Zm0,460C134.21,460,40,365.79,40,250S134.21,40,250,40s210,94.21,210,210S365.79,460,250,460Z"/><path class="cls-2" d="M385.86,154.11a20,20,0,0,0-28.29,0L208.63,303.05l-65.79-65.78-.41.41A20,20,0,1,0,114.14,266l79.93,79.92a20,20,0,0,0,28.28,0l163.51-163.5A20,20,0,0,0,385.86,154.11Z"/></g></g></g></svg>