<svg xmlns="http://www.w3.org/2000/svg" viewBox="0 0 500 500"><defs><style>.cls-1{fill:#404040;}.cls-2{fill:#0e7147;}</style></defs><g id="Layer_2" data-name="Layer 2"><g id="logos"><g id="circle-camera"><g id="camera"><path class="cls-1" d="M380,165.61H325V146.05a20,20,0,0,0-20-20H195a20,20,0,0,0-19.94,18.81H175v20.75H120a20,20,0,0,0-20,20h0V354a20,20,0,0,0,20,20H380a20,20,0,0,0,20-20V185.61A20,20,0,0,0,380,165.61Zm-240,40h55a20,20,0,0,0,20-20h0V166.05h70v19.56h0a20,20,0,0,0,20,20h55V334H140Z"/><path class="cls-1" d="M250,205.17A61.81,61.81,0,1,0,311.8,267,61.8,61.8,0,0,0,250,205.17Zm0,83.61A21.81,21.81,0,1,1,271.8,267,21.83,21.83,0,0,1,250,288.78Z"/></g><path class="cls-2" d="M250,0C111.93,0,0,111.93,0,250S111.93,500,250,500,500,388.07,500,250,388.07,0,250,0Zm0,460C134.21,460,40,365.79,40,250S134.21,40,250,40s210,94.21,210,210S365.79,460,250,460Z"/></g></g></g></svg>