<svg xmlns="http://www.w3.org/2000/svg" viewBox="0 0 500 500"><defs><style>.cls-1{fill:#404040;}.cls-2{fill:#0e7147;}</style></defs><g id="Layer_2" data-name="Layer 2"><g id="logos"><g id="circle-verification"><g id="shield"><path class="cls-1" d="M355,147a20.06,20.06,0,0,0-4.49.53c-45.84-1.54-76.27-31.77-84.64-41.14a20.93,20.93,0,0,0-1.75-2l-.59-.72-.11.08a19.92,19.92,0,0,0-26.84,0l-.11-.08-.59.72a19.8,19.8,0,0,0-1.75,2c-8.36,9.37-38.8,39.6-84.64,41.14A19.92,19.92,0,0,0,125,167h0c0,160.81,79.3,214.24,111.57,229.32a19.91,19.91,0,0,0,26.86,0C295.7,381.21,375,327.78,375,167h0A20,20,0,0,0,355,147ZM250,358.41c-23.85-12.25-79.15-53.34-84.56-172.28,38.84-5.28,67.43-24.32,84.56-39.34,17.13,15,45.72,34.06,84.56,39.34C329.15,305.07,273.85,346.16,250,358.41Z"/><path class="cls-1" d="M213.29,245.3c-.24-.32-.5-.63-.77-.93l-.18-.21h0a15,15,0,0,0-22.94,19.2h0l.2.24c.19.24.39.47.59.7l35.25,42.09a13.87,13.87,0,0,0,1,1.18l.13.16h0a15,15,0,0,0,22.12-.49h0l68.18-79.15a14.29,14.29,0,0,0,1.8-2.09l.1-.11h0a15,15,0,0,0-23.62-18.4h0l-.21.25,0,0-57.44,66.59Z"/></g><path class="cls-2" d="M250,0C111.93,0,0,111.93,0,250S111.93,500,250,500,500,388.07,500,250,388.07,0,250,0Zm0,460C134.21,460,40,365.79,40,250S134.21,40,250,40s210,94.21,210,210S365.79,460,250,460Z"/></g></g></g></svg>