<svg xmlns="http://www.w3.org/2000/svg" viewBox="0 0 500 500"><defs><style>.cls-1{fill:#404040;fill-rule:evenodd;}.cls-2{fill:#0e7147;}</style></defs><g id="Layer_2" data-name="Layer 2"><g id="logos"><g id="circle-food"><g id="food"><path class="cls-1" d="M431.05,257.12h0c0-.05,0-.09,0-.13s-.11-.34-.16-.51C392.72,131.06,273.22,83.56,251.73,75.94a24.85,24.85,0,0,0-3.08-1l-.27-.09v0a25.16,25.16,0,0,0-18.83,46.24v0l.17.08a25.35,25.35,0,0,0,4.17,1.85c99.6,44.83,138.58,123,148.38,146.55a24.74,24.74,0,0,0,2.62,6.8l0,.09h0a25.18,25.18,0,0,0,46.12-19.33Z"/><path class="cls-1" d="M369.69,276.33h0l0-.08a25.25,25.25,0,0,0-3-6.32c-38.44-78.1-108.41-119-130.29-130.37a25.08,25.08,0,0,0-6.57-3.23l-.17-.07h0a25.13,25.13,0,0,0-31.08,15.12h0L134.93,337a25.35,25.35,0,0,0-2.56,7.47l0,.07h0a25.16,25.16,0,0,0,29.12,29.11h0l.06,0a25.13,25.13,0,0,0,7.48-2.56l183.81-63h0a25.19,25.19,0,0,0,16.85-31.7Zm-60.39-6.48L197.67,308.37l-.07-.14,38.25-111.09A250.89,250.89,0,0,1,309.3,269.85Zm-129.48,90,.08-.16-.07.18Zm-33.68-33.68.31-.11-.29.13Z"/></g><path class="cls-2" d="M250,0C111.93,0,0,111.93,0,250S111.93,500,250,500,500,388.07,500,250,388.07,0,250,0Zm0,460C134.21,460,40,365.79,40,250S134.21,40,250,40s210,94.21,210,210S365.79,460,250,460Z"/></g></g></g></svg>