<svg xmlns="http://www.w3.org/2000/svg" viewBox="0 0 500 500"><defs><style>.cls-1{fill:#404040;}.cls-2{fill:#0e7147;}</style></defs><g id="Layer_2" data-name="Layer 2"><g id="logos"><g id="circle-style"><g id="emoji"><path class="cls-1" d="M250,100A150,150,0,1,0,400,250,150,150,0,0,0,250,100Zm0,260A110,110,0,1,1,360,250,110.13,110.13,0,0,1,250,360Z"/><circle class="cls-1" cx="205.82" cy="212.86" r="20"/><circle class="cls-1" cx="294.18" cy="212.86" r="20"/><path class="cls-1" d="M197.66,272.18a20,20,0,0,0-33.31,14.9,20.06,20.06,0,0,0,.71,5.23c-.17-.15.17.16,0,0h0c.25.63.35,1.32.64,1.95,1.79,3.59,4.11,6,6.58,8.73a101.88,101.88,0,0,0,78.22,36.47c35.5,0,65.94-18.93,84.24-46.41h0a20,20,0,0,0-31.54-21.61s-.31.71,0,0h0a13,13,0,0,1-2.19,2,20.33,20.33,0,0,0-2.33,3,62.07,62.07,0,0,1-48.18,22.93c-22.73,0-42-9-52.84-27.28"/></g><path class="cls-2" d="M250,0C111.93,0,0,111.93,0,250S111.93,500,250,500,500,388.07,500,250,388.07,0,250,0Zm0,460C134.21,460,40,365.79,40,250S134.21,40,250,40s210,94.21,210,210S365.79,460,250,460Z"/></g></g></g></svg>