<svg xmlns="http://www.w3.org/2000/svg" viewBox="0 0 300 300"><defs><style>.cls-1{fill:#6988f2;}</style></defs><g id="Layer_2" data-name="Layer 2"><g id="logos"><g id="emoji-b"><path class="cls-1" d="M150,0A150,150,0,1,0,300,150,150,150,0,0,0,150,0Zm0,260A110,110,0,1,1,260,150,110.13,110.13,0,0,1,150,260Z"/><circle class="cls-1" cx="105.82" cy="112.86" r="20"/><circle class="cls-1" cx="194.18" cy="112.86" r="20"/><path class="cls-1" d="M97.66,172.18a20,20,0,0,0-33.31,14.9,20.06,20.06,0,0,0,.71,5.23h0c.25.63.35,1.32.64,1.95,1.79,3.59,4.11,6,6.58,8.73a101.88,101.88,0,0,0,78.22,36.47c35.5,0,65.94-18.93,84.24-46.41h0a20,20,0,0,0-31.54-21.61s-.31.71,0,0h0a13,13,0,0,1-2.19,2,20.33,20.33,0,0,0-2.33,3.05,62.07,62.07,0,0,1-48.18,22.93c-22.73,0-42-9-52.84-27.28"/></g></g></g></svg>