<svg xmlns="http://www.w3.org/2000/svg" viewBox="0 0 300.01 300"><defs><style>.cls-1{fill:#404040;fill-rule:evenodd;}</style></defs><g id="Layer_2" data-name="Layer 2"><g id="logos"><g id="food"><path class="cls-1" d="M299.06,183.12h0a.5.5,0,0,0,0-.13c0-.17-.1-.34-.16-.51C260.73,57.06,141.23,9.56,119.73,1.94a24.16,24.16,0,0,0-3.07-1L116.39.8v0A25.16,25.16,0,0,0,97.55,47.06v0l.16.08A25.45,25.45,0,0,0,101.89,49c99.6,44.83,138.57,123,148.38,146.55a25,25,0,0,0,2.61,6.8l0,.09h0a25.56,25.56,0,0,0,4.06,5.37,25.2,25.2,0,0,0,42.06-24.7Z"/><path class="cls-1" d="M237.7,202.33h0l0-.08a25.28,25.28,0,0,0-3-6.32c-38.43-78.1-108.4-119-130.29-130.37a24.93,24.93,0,0,0-6.57-3.23l-.16-.07h0A25.16,25.16,0,0,0,66.54,77.38h0L2.94,263a25.07,25.07,0,0,0-2.56,7.47l0,.07h0a25.15,25.15,0,0,0,29.11,29.11h0l.07,0A25.13,25.13,0,0,0,37,297.06l183.8-63h0a25.2,25.2,0,0,0,16.86-31.7Zm-60.4-6.48L65.68,234.37l-.07-.14,38.24-111.09A250.76,250.76,0,0,1,177.3,195.85Zm-129.47,90,.07-.16-.06.18ZM14.14,252.15l.32-.11-.29.13Z"/></g></g></g></svg>