<svg xmlns="http://www.w3.org/2000/svg" viewBox="0 0 297.76 297.75"><defs><style>.cls-1{fill:#0e7147;}</style></defs><g id="Layer_2" data-name="Layer 2"><g id="logos"><path id="locate-g" class="cls-1" d="M293.46,4.3C288.8-.36,281.57-1.16,275,1.56v0L16.22,107.61h0a23,23,0,0,0-11,7.22c-5.78,6.8-6.93,16-2.78,22.33a14.26,14.26,0,0,0,8.36,6v0h0l57.9,17.4h0l3.55,1.06v0l.38.09,47.11,13.56h0l8.59,28.94,26.23,82.75h0a14.26,14.26,0,0,0,6,8.36c6.28,4.16,15.54,3,22.33-2.78a23,23,0,0,0,7.22-10.95h0L296.19,22.79c.11-.26.23-.53.33-.79l0-.11h0C298.85,15.54,297.9,8.74,293.46,4.3Zm-46,49.39L178.77,226.22c-.52,1.32-2.31,1.53-2.69.33L165,191.71,154.58,157a15.36,15.36,0,0,0-.74-2.48l-.07-.22h0a14.43,14.43,0,0,0-3.14-4.78,14.24,14.24,0,0,0-5.41-3.38h0L145,146l-.19-.06L92.13,128A15,15,0,0,0,89,126.33v0l-.25-.07c-.47-.17-1-.31-1.44-.44L75,122.09c-2.12-.64-1.76-3.78.54-4.7L244.06,50.3A2.52,2.52,0,0,1,247.46,53.69Z"/></g></g></svg>