<svg xmlns="http://www.w3.org/2000/svg" viewBox="0 0 208.81 297.76"><defs><style>.cls-1{fill:#0e7147;fill-rule:evenodd;}</style></defs><g id="Layer_2" data-name="Layer 2"><g id="logos"><path id="pin-g" class="cls-1" d="M208.36,96.37h0A104.33,104.33,0,0,0,0,104.32s0,1.13.06,3.35a103.76,103.76,0,0,0,6.65,33.5c9.16,30.58,30.77,80.16,81.64,148.62h0a20,20,0,0,0,31.07,1h0l.07-.09a19.73,19.73,0,0,0,1.86-2.59C132,273.37,183.24,200,202,141.17a104,104,0,0,0,6.36-28.35A71.84,71.84,0,0,0,208.36,96.37Z"/></g></g></svg>