<svg xmlns="http://www.w3.org/2000/svg" viewBox="0 0 208.81 297.76"><defs><style>.cls-1,.cls-2{fill:#404040;}.cls-1{fill-rule:evenodd;}</style></defs><g id="Layer_2" data-name="Layer 2"><g id="logos"><g id="pin"><path class="cls-1" d="M208.36,96.37h0A104.33,104.33,0,0,0,0,104.32s0,1.13.06,3.35a103.76,103.76,0,0,0,6.65,33.5c9.16,30.58,30.77,80.16,81.64,148.62h0a20,20,0,0,0,31.07,1h0l.07-.09a19.73,19.73,0,0,0,1.86-2.59C132,273.37,183.24,200,202,141.17a104,104,0,0,0,6.36-28.35A71.84,71.84,0,0,0,208.36,96.37Zm-45.22,27.32c-11.88,34.72-38.31,82.37-51.45,109.86a8.41,8.41,0,0,1-15.08.17c-31.82-62.41-46.77-93.14-52.48-112.14C34.77,90.48,50.45,57,80.63,45a69.74,69.74,0,0,1,25.62-5,57.31,57.31,0,0,1,19,3.35C157.84,54.82,174.33,91,163.14,123.69Z"/><circle class="cls-2" cx="104.41" cy="106.43" r="30"/></g></g></g></svg>