<svg xmlns="http://www.w3.org/2000/svg" viewBox="0 0 348.16 300"><defs><style>.cls-1{fill:#404040;fill-rule:evenodd;}</style></defs><g id="Layer_2" data-name="Layer 2"><g id="logos"><g id="po"><path class="cls-1" d="M316.26,11.91Q300.9,0,268.71,0H204.8Q190,0,181.91,6.16t-8.14,17.33q0,15.77,23.15,15.76H215.2L192.69,93.44l-31,75.29s-23.06,67.67-51.8,82.35a64.82,64.82,0,0,1-24.62,7.21c-17.22,1.31-33.59-8.52-39.56-24.73-5.4-14.63-2.54-35,36-53.91.21-.11.44-.2.65-.32l0,0h0a20,20,0,0,0-18.08-35.64v0c-7.24,2.48-54.2,22.15-62.46,60.71-9.26,43.2,16.38,83.86,54.24,91.9s87.06,10.06,126-68.49c18.94-38.85,19-41.86,19-41.86L217.41,146l14.06-34h23q36.06,0,53.34-14Q331.6,78.83,331.6,48.61,331.6,23.82,316.26,11.91ZM261.33,72.76H247.74l13.92-33.51H272.9q15.25,0,15.26,12.16Q288.16,72.76,261.33,72.76Z"/><path class="cls-1" d="M288.16,169.24a60,60,0,1,0,60,60A60.07,60.07,0,0,0,288.16,169.24Zm0,80a20,20,0,1,1,20-20A20,20,0,0,1,288.16,249.24Z"/></g></g></g></svg>