<svg xmlns="http://www.w3.org/2000/svg" viewBox="0 0 250 303"><defs><style>.cls-1{fill:#404040;}</style></defs><g id="Layer_2" data-name="Layer 2"><g id="logos"><g id="shield"><path class="cls-1" d="M230,48.47a20.06,20.06,0,0,0-4.49.53c-45.84-1.54-76.27-31.77-84.64-41.14a20.93,20.93,0,0,0-1.75-2l-.59-.72-.11.08a19.92,19.92,0,0,0-26.84,0l-.11-.08-.59.72a19.8,19.8,0,0,0-1.75,2c-8.36,9.37-38.8,39.6-84.64,41.14A19.92,19.92,0,0,0,0,68.47H0C0,229.28,79.3,282.71,111.57,297.79a19.91,19.91,0,0,0,26.86,0C170.7,282.71,250,229.28,250,68.48h0A20,20,0,0,0,230,48.47ZM125,259.91c-23.85-12.25-79.15-53.34-84.56-172.28C79.28,82.35,107.87,63.31,125,48.29c17.13,15,45.72,34.06,84.56,39.34C204.15,206.57,148.85,247.66,125,259.91Z"/><path class="cls-1" d="M88.29,146.8c-.24-.32-.5-.63-.77-.93l-.18-.21h0a15,15,0,0,0-22.94,19.2h0l.2.24c.19.24.39.47.59.7l35.25,42.09a13.87,13.87,0,0,0,1,1.18l.13.16h0a15,15,0,0,0,22.12-.49h0l68.18-79.15a14.29,14.29,0,0,0,1.8-2.09l.1-.11h0A15,15,0,0,0,170.12,109h0l-.21.25,0,0-57.44,66.59Z"/></g></g></g></svg>