<svg xmlns="http://www.w3.org/2000/svg" viewBox="0 0 300 300"><defs><style>.cls-1{fill:#b7b7b7;}</style></defs><g id="Layer_2" data-name="Layer 2"><g id="logos"><g id="browse-l"><path class="cls-1" d="M150,0A150,150,0,1,0,300,150,150,150,0,0,0,150,0Zm0,260A110,110,0,1,1,260,150,110.13,110.13,0,0,1,150,260Z"/><path class="cls-1" d="M227,93a20,20,0,0,0-33.12-15.07h0l-72.34,34v0a20,20,0,0,0-8.55,7.63h0l-.11.22a19.57,19.57,0,0,0-1.49,3l-33,70.65h0a20,20,0,0,0,28.23,28.23h0l71.21-33.26a20,20,0,0,0,1.86-.91l0,0h0a20,20,0,0,0,7.73-7.67h0l.07-.14c.21-.38.4-.78.59-1.18L223.73,104h0A19.82,19.82,0,0,0,227,93Zm-77,77a20,20,0,1,1,20-20A20,20,0,0,1,150,170Z"/></g></g></g></svg>