<svg xmlns="http://www.w3.org/2000/svg" viewBox="0 0 500 500"><defs><style>.cls-1{fill:#404040;fill-rule:evenodd;}.cls-2{fill:#0e7147;}</style></defs><g id="Layer_2" data-name="Layer 2"><g id="logos"><g id="circle-form"><g id="edit"><path class="cls-1" d="M318.39,129.5l49.1,49.08a23.14,23.14,0,1,0,32.73-32.72l-49.1-49.08a23.14,23.14,0,0,0-32.73,32.72Z"/><path class="cls-1" d="M357.27,188.79l-50.5-50.48-.07.07a23.15,23.15,0,0,0-31.27,1.33L113.77,301.31a23,23,0,0,0-6.64,18.78v43.66h.1a23.09,23.09,0,0,0,26.15,25.86V390h46.3v-.16a23.09,23.09,0,0,0,15.9-6.76l0,0,161.66-161.6A23.13,23.13,0,0,0,357.27,188.79ZM169.54,343.73H153.42V327.12L291.8,188.79l16.37,16.36Z"/></g><path class="cls-2" d="M250,0C111.93,0,0,111.93,0,250S111.93,500,250,500,500,388.07,500,250,388.07,0,250,0Zm0,460C134.21,460,40,365.79,40,250S134.21,40,250,40s210,94.21,210,210S365.79,460,250,460Z"/></g></g></g></svg>