<svg xmlns="http://www.w3.org/2000/svg" viewBox="0 0 500 500"><defs><style>.cls-1{fill:#404040;}.cls-2{fill:#0e7147;}</style></defs><g id="Layer_2" data-name="Layer 2"><g id="logos"><g id="circle-spoon"><path id="spoon" class="cls-1" d="M358.2,241.47c-1.33-37.44-11.51-71.18-29.46-97.54-19.74-29-47.05-45.64-74.94-45.64h-7.6c-27.89,0-55.2,16.64-74.94,45.64-17.95,26.36-28.13,60.1-29.46,97.54-1.41,40.23,16.52,75.06,50.51,98.09,2.18,1.48,4.29,2.82,6.36,4.06l-1.78,37.51a20,20,0,0,0,40,0l2.17-47H239c.05-.6.09-1.2.09-1.81a19.83,19.83,0,0,0-11.56-18v0c-20.26-9.91-46.15-31.19-44.73-71.35,2.27-64.42,36.38-104.59,64.42-104.59h7.6c28,0,62.15,40.17,64.42,104.59,1.41,40-25.07,61.39-45.3,71.35v0a19.84,19.84,0,0,0-13,18.6c0,.61,0,1.22.1,1.82H261l2.18,47a20,20,0,0,0,40,0l-1.8-37.93c2.16-1.4,4.31-2.84,6.34-4.22C341.68,316.53,359.61,281.7,358.2,241.47Z"/><path class="cls-2" d="M250,0C111.93,0,0,111.93,0,250S111.93,500,250,500,500,388.07,500,250,388.07,0,250,0Zm0,460C134.21,460,40,365.79,40,250S134.21,40,250,40s210,94.21,210,210S365.79,460,250,460Z"/></g></g></g></svg>