<svg xmlns="http://www.w3.org/2000/svg" viewBox="0 0 321.75 295.93"><defs><style>.cls-1{fill:#404040;fill-rule:evenodd;}</style></defs><g id="Layer_2" data-name="Layer 2"><g id="logos"><path id="home" class="cls-1" d="M315,132.79,174.44,5.1a20.48,20.48,0,0,0-27.05,0L6.46,133.09a19.7,19.7,0,0,0-1.34,27.84h0A19.72,19.72,0,0,0,33,162.27L43.21,153V276.21a19.71,19.71,0,0,0,19.71,19.72h0a19.72,19.72,0,0,0,19.72-19.72v-159l78.27-71.09,79.57,72.26V276.21a19.72,19.72,0,0,0,19.72,19.72h0a19.72,19.72,0,0,0,19.71-19.72V154.15l8.95,8.12a19.7,19.7,0,0,0,29-2.72C324.07,151.37,322.65,139.7,315,132.79Z"/></g></g></svg>