<svg xmlns="http://www.w3.org/2000/svg" viewBox="0 0 302.73 302.72"><defs><style>.cls-1{fill:#fff;}</style></defs><g id="Layer_2" data-name="Layer 2"><g id="logos"><path id="locate-w" class="cls-1" d="M298,4.71C293.11-.2,285.66-1.22,279,1.4v0L16.1,103.35h0A22,22,0,0,0,5,110.48c-5.75,6.82-6.69,16.3-2.25,22.85a15.71,15.71,0,0,0,8.74,6.34v0h0l59.92,19.42h0l3.68,1.19v0l.39.1,48.74,15.19h0l9.6,30L163,291.2h0a15.74,15.74,0,0,0,6.34,8.75c6.56,4.43,16,3.49,22.85-2.26a22,22,0,0,0,7.12-11.06h0L301.32,23.78c.1-.27.22-.54.31-.81l0-.11h0C303.85,16.4,302.7,9.39,298,4.71ZM252.1,54.2,186.21,229.52c-.5,1.34-2.33,1.51-2.76.26l-12.28-36.07-11.66-36a16.39,16.39,0,0,0-.83-2.57l-.07-.23h0a15.63,15.63,0,0,0-9-8.61h0l-.22-.08-.19-.07L94.6,126.28a16.81,16.81,0,0,0-3.26-1.75v0l-.25-.08a15.46,15.46,0,0,0-1.5-.49L76.83,119.8c-2.2-.71-1.91-3.93.43-4.81L248.53,50.62A2.7,2.7,0,0,1,252.1,54.2Z"/></g></g></svg>