<svg xmlns="http://www.w3.org/2000/svg" viewBox="0 0 315.75 315.74"><defs><style>.cls-1{fill:#404040;}</style></defs><g id="Layer_2" data-name="Layer 2"><g id="logos"><path id="locate" class="cls-1" d="M309.9,5.84a20,20,0,0,0-20.53-4.79V1L15.84,92.34h0a20,20,0,0,0-2.46,38.41v0h0l65.18,24.67h0l4,1.51v0l.42.13,53,19.43h0l12.21,32.57L185,302.36h0a19.86,19.86,0,0,0,7.33,9.75,20,20,0,0,0,31.08-12.21h0L314.68,26.39c.1-.28.2-.56.28-.84l0-.12h0A20,20,0,0,0,309.9,5.84ZM264.23,55.56,205.58,238.14a1.55,1.55,0,0,1-2.92.09L187.18,199l-14.82-39.11a19.26,19.26,0,0,0-1.06-2.79l-.09-.25h0A19.7,19.7,0,0,0,161,147h0l-.24-.1-.21-.09L101.06,122a20.54,20.54,0,0,0-3.59-2.08v0l-.27-.11c-.54-.23-1.08-.43-1.63-.61L81.69,113.9a2.7,2.7,0,0,1,.13-5.1L260.18,51.51A3.22,3.22,0,0,1,264.23,55.56Z"/></g></g></svg>