<svg xmlns="http://www.w3.org/2000/svg" viewBox="0 0 297.23 293.39"><defs><style>.cls-1{fill:#6988f2;}</style></defs><g id="Layer_2" data-name="Layer 2"><g id="logos"><path id="messages" class="cls-1" d="M210.44,0H86.78A86.78,86.78,0,0,0,0,86.78v62H0v1.93H.1a20,20,0,0,0,39.8,0H40V148.8h0v-62A46.84,46.84,0,0,1,86.78,40H210.44a46.84,46.84,0,0,1,46.79,46.78v63.94a46.84,46.84,0,0,1-46.79,46.79H86.78S0,191.18,0,273.39a20,20,0,0,0,40,0s-2-35.88,46.78-35.88H210.44a86.79,86.79,0,0,0,86.79-86.79V86.78A86.79,86.79,0,0,0,210.44,0Z"/></g></g></svg>