<svg xmlns="http://www.w3.org/2000/svg" viewBox="0 0 300 300"><defs><style>.cls-1{fill:#fff;}</style></defs><g id="Layer_2" data-name="Layer 2"><g id="logos"><path id="plus" class="cls-1" d="M279.48,130H172.31a2.3,2.3,0,0,1-2.31-2.31V20.52C170,9.65,161.55.37,150.68,0A20,20,0,0,0,130,20V128a2,2,0,0,1-2,2H20.52C9.65,130,.37,138.45,0,149.31A20,20,0,0,0,20,170H127.4a2.59,2.59,0,0,1,2.6,2.6V279.48c0,10.87,8.45,20.15,19.32,20.51A20,20,0,0,0,170,280V172.37a2.37,2.37,0,0,1,2.37-2.37H280a20,20,0,0,0,20-20.69C299.63,138.45,290.35,130,279.48,130Z"/></g></g></svg>