<svg xmlns="http://www.w3.org/2000/svg" viewBox="0 0 216.55 303.41"><defs><style>.cls-1{fill:#f77800;}</style></defs><g id="Layer_2" data-name="Layer 2"><g id="logos"><path id="spoon-o" class="cls-1" d="M216.47,143.18C215.15,105.73,205,72,187,45.63,167.28,16.63,140,0,112.07,0h-7.6C76.59,0,49.27,16.63,29.53,45.63,11.59,72,1.4,105.73.08,143.18c-1.42,40.22,16.51,75.06,50.5,98.09,2.18,1.48,4.29,2.81,6.36,4.06l-1.78,37.5a20,20,0,0,0,40,0l2.18-47h-.1c.06-.6.09-1.21.09-1.82a19.83,19.83,0,0,0-11.56-18l0,0C65.52,206,39.64,184.75,41.05,144.59,43.33,80.17,77.43,40,105.47,40h7.6c28,0,62.15,40.17,64.42,104.59,1.41,40-25.07,61.39-45.3,71.34v0a19.85,19.85,0,0,0-12.95,18.6q0,.93.09,1.83h-.09l2.17,47a20,20,0,0,0,40,0l-1.8-37.93c2.16-1.39,4.31-2.83,6.34-4.21C200,218.24,217.89,183.4,216.47,143.18Z"/></g></g></svg>