<svg id="Capa_1" enable-background="new 0 0 497 497" height="512" viewBox="0 0 497 497" width="512" xmlns="http://www.w3.org/2000/svg"><g><g fill="#dcdcdc"><path d="m235.128 4.365c-13.233-8.301-30.68-4.413-39.177 8.696l-8.116 12.521c-8.69 13.406-4.697 31.296 8.826 39.802 9.008 5.667 18.175 11.716 27.448 18.126l39.238-60.535c-9.538-6.592-18.963-12.804-28.219-18.61z"/><path d="m492.635 261.872c-5.806-9.256-12.018-18.681-18.611-28.219l-60.535 39.238c6.41 9.273 12.459 18.439 18.126 27.447 8.507 13.523 26.396 17.516 39.802 8.826l12.521-8.116c13.11-8.496 16.998-25.943 8.697-39.176z"/><path d="m143.511 95.982c-13.233-8.301-30.68-4.413-39.177 8.696l-8.116 12.521c-8.689 13.406-4.697 31.296 8.826 39.802 9.008 5.667 18.175 11.716 27.447 18.126l39.238-60.535c-9.537-6.592-18.962-12.804-28.218-18.61z"/><path d="m401.018 353.489c-5.806-9.256-12.018-18.681-18.611-28.219l-60.535 39.238c6.41 9.273 12.459 18.439 18.126 27.448 8.507 13.523 26.396 17.516 39.802 8.826l12.521-8.116c13.11-8.497 16.998-25.944 8.697-39.177z"/></g><path d="m484.981 207.016c-11.595-35.026-39.169-77.502-78.333-116.664-39.163-39.163-81.639-66.737-116.664-78.332-11.666-3.862-24.435-1.837-34.355 5.417-13.762 10.064-33.079 28.161-45.212 56.469-8.063 18.814.662 40.631 19.355 48.97 26.348 11.754 56.125 32.632 83.922 60.43 27.798 27.798 48.677 57.574 60.431 83.923 8.339 18.693 30.156 27.418 48.969 19.355 28.308-12.133 46.405-31.45 56.469-45.212 7.254-9.921 9.28-22.691 5.418-34.356z" fill="#e27858"/><path d="m393.364 298.633c-11.595-35.026-39.169-77.502-78.332-116.664-39.163-39.163-81.639-66.737-116.664-78.332-11.666-3.862-24.435-1.837-34.354 5.417-13.762 10.064-33.08 28.161-45.212 56.469-8.063 18.814.662 40.631 19.355 48.97 26.348 11.754 56.125 32.632 83.922 60.43 27.798 27.798 48.676 57.574 60.43 83.923 8.339 18.693 30.156 27.418 48.97 19.355 28.308-12.133 46.405-31.45 56.469-45.212 7.253-9.921 9.277-22.691 5.416-34.356z" fill="#dc6742"/><g><g><g><ellipse cx="191.084" cy="182.376" fill="#ff8997" rx="25.669" ry="32.233" transform="matrix(.707 -.707 .707 .707 -72.992 188.534)"/></g><g><ellipse cx="314.624" cy="305.916" fill="#ff8997" rx="25.669" ry="32.233" transform="matrix(.707 -.707 .707 .707 -124.164 312.072)"/></g></g></g><g><path d="m216.535 183.49c-2.929-2.929-2.929-7.678 0-10.607l9.317-9.317c2.93-2.93 7.678-2.928 10.607 0 2.929 2.929 2.929 7.678 0 10.607l-9.317 9.317c-2.929 2.928-7.677 2.929-10.607 0z" fill="#423e4f"/></g><g><path d="m313.51 280.464c-2.929-2.929-2.929-7.678 0-10.607l9.317-9.317c2.931-2.929 7.679-2.928 10.607 0 2.929 2.929 2.929 7.678 0 10.607l-9.317 9.317c-2.93 2.929-7.678 2.93-10.607 0z" fill="#423e4f"/></g><g><path d="m259.476 237.523c-6.433-6.433-9.764-15.335-9.139-24.425.285-4.132 3.842-7.252 7.997-6.968 4.132.284 7.252 3.864 6.968 7.997-.327 4.762 1.415 9.423 4.781 12.789 3.364 3.365 8.008 5.108 12.789 4.781 4.138-.282 7.713 2.836 7.996 6.969.283 4.132-2.836 7.712-6.969 7.996-9.078.623-17.981-2.697-24.423-9.139z" fill="#423e4f"/></g><path d="m51.894 187.598c-13.233-8.301-30.68-4.413-39.177 8.696l-8.116 12.521c-8.689 13.406-4.697 31.296 8.826 39.802 9.008 5.667 18.175 11.716 27.447 18.126l39.238-60.535c-9.536-6.592-18.962-12.804-28.218-18.61z" fill="#dcdcdc"/><path d="m309.402 445.106c-5.806-9.256-12.018-18.681-18.611-28.219l-60.535 39.238c6.41 9.273 12.459 18.439 18.126 27.448 8.507 13.523 26.396 17.516 39.803 8.826l12.521-8.116c13.108-8.497 16.997-25.944 8.696-39.177z" fill="#dcdcdc"/><path d="m173.447 141.309c12.131-12.131 24.947-23.012 38.239-32.644-4.54-1.915-8.986-3.595-13.319-5.029-11.666-3.862-24.435-1.836-34.354 5.417-13.762 10.063-33.08 28.161-45.212 56.469-5.736 13.384-2.97 28.284 5.832 38.774 13.013-22.2 29.304-43.477 48.814-62.987z" fill="#ca5935"/><path d="m301.747 390.249c-11.595-35.026-39.169-77.502-78.332-116.664-39.163-39.163-81.639-66.737-116.664-78.332-11.666-3.862-24.436-1.837-34.354 5.417-13.763 10.064-33.08 28.161-45.212 56.469-8.063 18.814.662 40.631 19.354 48.97 26.349 11.754 56.125 32.632 83.923 60.43s48.676 57.574 60.43 83.923c8.339 18.693 30.156 27.418 48.97 19.355 28.308-12.133 46.405-31.45 56.469-45.212 7.253-9.92 9.278-22.69 5.416-34.356z" fill="#e27858"/><path d="m125.566 202.703c-6.457-2.944-12.75-5.442-18.815-7.45-11.666-3.862-24.436-1.836-34.354 5.417-13.763 10.063-33.08 28.161-45.212 56.469-8.063 18.813.662 40.63 19.354 48.97 12.834 5.725 26.482 13.63 40.318 23.43 1.366-42.03 14.457-86.039 38.709-126.836z" fill="#dc6742"/><path d="m365.99 54.612c-26.518-20.317-52.885-34.938-76.006-42.592-11.666-3.862-24.435-1.837-34.354 5.417-13.762 10.064-33.079 28.161-45.212 56.469-4.903 11.44-3.59 23.985 2.388 33.94 48.013-34.467 102.2-52.55 153.184-53.234z" fill="#dc6742"/></g></svg>