<svg id="Capa_1" enable-background="new 0 0 497 497" height="512" viewBox="0 0 497 497" width="512" xmlns="http://www.w3.org/2000/svg"><g><path d="m430.429 86.827h-363.859c-36.765 0-66.57 29.805-66.57 66.571 0 36.766 29.805 66.57 66.57 66.57l181.93 66.571 181.929-66.571c36.766 0 66.571-29.805 66.571-66.57 0-36.766-29.805-66.571-66.571-66.571z" fill="#ffdebb"/><path d="m288.439 10.749h-79.877c-27.55 0-49.884 22.334-49.884 49.884v47.775h179.644v-47.775c0-27.55-22.333-49.884-49.883-49.884z" fill="#f9ed80"/><path d="m430.429 353.11-181.929-66.571-181.93 66.571c-36.765 0-66.57 29.804-66.57 66.57 0 36.766 29.805 66.57 66.57 66.57h363.859c36.766 0 66.571-29.805 66.571-66.57 0-36.766-29.805-66.57-66.571-66.57z" fill="#ffdebb"/><path d="m430.429 219.968h-363.859c-36.765 0-66.57 29.805-66.57 66.571 0 36.766 29.805 66.57 66.57 66.57h363.859c36.766 0 66.571-29.805 66.571-66.57 0-36.766-29.805-66.571-66.571-66.571z" fill="#ffca8a"/><path d="m236.871 10.749h-28.309c-27.55 0-49.884 22.333-49.884 49.884v35.417c20.185-32.606 46.758-61.508 78.193-85.301z" fill="#f9d888"/><path d="m164.601 86.827h-98.03c-36.766 0-66.571 29.805-66.571 66.571 0 36.766 29.805 66.57 66.57 66.57l49.227 18.013c1.481-55.274 19.125-106.909 48.804-151.154z" fill="#ffca8a"/><path d="m128.826 330.33-62.255 22.78c-36.766 0-66.571 29.804-66.571 66.57 0 36.766 29.805 66.57 66.57 66.57h178.32c-54.98-39.093-96.218-93.388-116.064-155.92z" fill="#ffca8a"/><path d="m412.33 269.678v-156.086c0-24.17-19.594-43.763-43.763-43.763h-240.134c-24.17 0-43.763 19.594-43.763 43.763v276.087c0 30.16 24.45 54.61 54.61 54.61 30.16 0 54.61-24.45 54.61-54.61v-60c0 30.16 24.45 54.61 54.61 54.61 30.16 0 54.61-24.45 54.61-54.61v-60c0 30.16 24.45 54.61 54.61 54.61 30.16-.001 54.61-24.45 54.61-54.611" fill="#e7886e"/><path d="m115.692 245.553c0-8.618.414-17.147 1.184-25.585h-50.305c-36.766 0-66.571 29.805-66.571 66.571 0 36.766 29.805 66.57 66.57 66.57h70.584c-13.859-33.457-21.462-69.698-21.462-107.556z" fill="#ffbe73"/><path d="m115.692 245.553c0-65.416 22.648-126.022 61.195-175.725h-48.454c-24.17 0-43.763 19.594-43.763 43.764v276.086c0 30.16 24.45 54.61 54.61 54.61 16.379 0 31.062-7.22 41.071-18.64-40.646-50.502-64.659-112.747-64.659-180.095z" fill="#e27858"/><ellipse cx="156.946" cy="173.52" fill="#fff" rx="33.782" ry="26.902"/><ellipse cx="340.054" cy="173.52" fill="#fff" rx="33.782" ry="26.902"/><ellipse cx="248.5" cy="152.85" fill="#423e4f" rx="17.932" ry="20.066"/><g><path d="m162.593 148.557c-4.143 0-7.5-3.358-7.5-7.5v-13.103c0-4.142 3.357-7.5 7.5-7.5s7.5 3.358 7.5 7.5v13.103c0 4.142-3.357 7.5-7.5 7.5z" fill="#423e4f"/></g><g><path d="m334.407 148.557c-4.143 0-7.5-3.358-7.5-7.5v-13.103c0-4.142 3.357-7.5 7.5-7.5s7.5 3.358 7.5 7.5v13.103c0 4.142-3.358 7.5-7.5 7.5z" fill="#423e4f"/></g></g></svg>