<svg id="Capa_1" enable-background="new 0 0 497 497" height="512" viewBox="0 0 497 497" width="512" xmlns="http://www.w3.org/2000/svg"><g><path d="m481.486 64.325c-9.326-9.326-21.266-14.433-33.461-15.35-.917-12.195-6.023-24.135-15.35-33.461-20.686-20.686-54.224-20.686-74.91 0-18.783 18.783-20.508 48.161-5.181 68.893l-78.36 78.36 60.009 60.009 78.36-78.36c20.733 15.327 50.11 13.602 68.893-5.181 20.685-20.685 20.686-54.224 0-74.91z" fill="#dcdcdc"/><path d="m363.73 177.852c-5.641-5.548-12.662-12.452-22.02-22.042l-.257-.263-.264-.257c-9.612-9.379-16.522-16.406-22.074-22.052-2.796-2.843-5.296-5.382-7.645-7.717l-37.247 37.247 60.009 60.009 37.248-37.247c-2.344-2.361-4.894-4.87-7.75-7.678z" fill="#cececc"/><path d="m365.398 224.985c-8.756-13.696-15.951-18.291-45.159-48.224-29.98-29.254-34.53-36.404-48.224-45.159-21.428-13.74-49.683-8.164-64.598 12.077-6.241 8.458-16.348 13.179-26.854 12.521l-15.351-.965c-12.566-.789-24.363 6.117-29.821 17.47l-6.593 13.688c-4.61 9.58-13.812 16.12-24.382 17.327l-15.22 1.735c-12.442 1.422-22.811 10.199-26.254 22.237l-4.226 14.79c-2.941 10.258-10.956 18.285-21.22 21.233-15.918 4.565-25.004 21.24-21.128 37.209 4.223 17.44-7.784 28.57-7.838 28.667-11.373 11.947-11.373 30.714 0 42.661l.143.156c12.34 12.961 7.627 28.646 7.63 28.784-3.9 16.055 5.51 32.338 21.363 36.988l.13.039c17.185 5.034 20.975 21.033 21.024 21.115 4.65 15.853 20.933 25.263 36.988 21.363l.163-.033c17.434-4.231 28.648 7.734 28.778 7.806 11.947 11.373 30.714 11.373 42.661 0l.248-.235c7.565-7.199 18.266-10.062 28.419-7.604 15.979 3.878 32.648-5.224 37.21-21.128 2.948-10.264 10.975-18.279 21.233-21.22l14.79-4.226c12.038-3.443 20.815-13.812 22.237-26.254l1.735-15.22c1.206-10.571 7.747-19.772 17.327-24.382l13.688-6.593c11.353-5.458 18.259-17.255 17.47-29.821l-.965-15.351c-.659-10.505 4.063-20.613 12.521-26.854 20.254-14.925 25.804-43.186 12.075-64.597z" fill="#e27858"/><g><g><g><ellipse cx="112.474" cy="408.687" fill="#fff" rx="37.383" ry="29.77" transform="matrix(.707 -.707 .707 .707 -256.044 199.235)"/></g><g><ellipse cx="255.756" cy="265.405" fill="#fff" rx="37.384" ry="29.77" transform="matrix(.707 -.707 .707 .707 -112.761 258.581)"/></g></g></g><g><path d="m102.313 378.321-10.807-10.806c-2.93-2.929-2.93-7.678-.001-10.607 2.93-2.929 7.679-2.929 10.606 0l10.807 10.806c2.93 2.929 2.93 7.678.001 10.607-2.928 2.927-7.677 2.93-10.606 0z" fill="#423e4f"/></g><g><path d="m214.784 265.85-10.807-10.806c-2.93-2.929-2.93-7.678-.001-10.607 2.93-2.929 7.679-2.929 10.606 0l10.807 10.806c2.93 2.929 2.93 7.678.001 10.607-2.928 2.928-7.677 2.93-10.606 0z" fill="#423e4f"/></g><g><path d="m148.189 338.769c-4.133-.284-7.253-3.864-6.969-7.996.283-4.132 3.875-7.247 7.996-6.969 5.873.406 11.616-1.745 15.764-5.893s6.296-9.893 5.893-15.763c-.284-4.132 2.836-7.713 6.968-7.997 4.134-.282 7.712 2.836 7.997 6.968.701 10.197-3.035 20.183-10.251 27.398-7.218 7.219-17.205 10.951-27.398 10.252z" fill="#423e4f"/></g><path d="m25.289 431.131c13.275-62.226 49.271-128.259 105.422-184.411 48.956-48.956 105.425-82.592 160.332-99.207-7.16-7.151-11.834-11.312-19.028-15.911-21.428-13.74-49.683-8.164-64.598 12.077-6.241 8.458-16.349 13.179-26.854 12.521l-15.351-.965c-12.566-.789-24.363 6.117-29.821 17.47l-6.593 13.688c-4.61 9.58-13.812 16.12-24.382 17.327l-15.22 1.734c-12.442 1.421-22.811 10.199-26.254 22.237l-4.226 14.79c-2.941 10.258-10.955 18.285-21.22 21.233-15.918 4.565-25.004 21.24-21.128 37.209 4.223 17.439-7.784 28.569-7.839 28.667-11.373 11.947-11.373 30.715 0 42.661l.143.157c12.34 12.961 7.627 28.646 7.63 28.784-2.724 11.22 1.056 22.545 8.987 29.939z" fill="#dc6742"/></g></svg>