<svg id="Capa_1" enable-background="new 0 0 497 497" height="512" viewBox="0 0 497 497" width="512" xmlns="http://www.w3.org/2000/svg"><g><path d="m490.588 108.735-4.841-9.396c-4.214-8.179-14.259-11.393-22.438-7.179l-123.107 63.426 20.099 39.013 123.107-63.427c8.179-4.213 11.393-14.259 7.18-22.437z" fill="#f9d888"/><path d="m415.864 8.138-8.963-5.603c-7.801-4.877-18.079-2.506-22.956 5.295l-73.41 117.428 37.213 23.263 73.41-117.428c4.878-7.8 2.507-18.078-5.294-22.955z" fill="#f9d888"/><path d="m369.784 425.905-3.189 12.434c-8.836 34.524-39.936 58.661-75.572 58.661h-163.119c-35.635 0-66.736-24.137-75.571-58.661l-3.189-12.434 160.32-38.1z" fill="#ff6f7f"/><path d="m410.066 119.592-69.864 35.995 20.099 39.012 69.583-35.85c-2.324-5.606-4.915-11.119-7.786-16.52z" fill="#ffbe73"/><path d="m347.749 148.522 41.992-67.171-10.504-19.763c-4.247-7.991-9.366-15.322-15.202-21.908l-53.5 85.579z" fill="#ffbe73"/><path d="m395.608 156.309-42.862-80.643c-14.326-26.956-42.355-43.798-72.87-43.798h-140.825c-30.515 0-58.544 16.842-72.87 43.798l-42.861 80.643c-9.158 17.232-15.019 35.83-17.447 54.867l203.591 38.103 203.591-38.103c-2.428-19.037-8.289-37.634-17.447-54.867zm-109.012-33.266c0 18.845-15.277 34.123-34.122 34.123h-86.02c-18.845 0-34.122-15.277-34.122-34.123 0-18.845 15.277-34.123 34.122-34.123h86.02c18.845.001 34.122 15.278 34.122 34.123z" fill="#ff6f7f"/><path d="m168.874 31.868h-29.823c-30.515 0-58.544 16.842-72.87 43.798l-42.861 80.643c-9.158 17.232-15.019 35.83-17.447 54.867l54.324 10.167c11.148-75.888 51.089-142.685 108.677-189.475z" fill="#fc5c70"/><path d="m97.492 414.415-48.349 11.49 3.189 12.434c8.837 34.524 39.937 58.661 75.572 58.661h40.254c-28.286-23.124-52.288-51.082-70.666-82.585z" fill="#fc5c70"/><path d="m409.359 271.368-39.575 154.537h-320.64l-39.575-154.537c-5.071-19.817-6.271-40.248-3.696-60.192h407.183c2.574 19.944 1.374 40.375-3.697 60.192z" fill="#6a647f"/><ellipse cx="209.464" cy="318.542" fill="#f9ed80" rx="122.861" ry="69.263"/><g><g><path d="m140.554 330.357c-4.143 0-7.5-3.358-7.5-7.5v-13.242c0-4.142 3.357-7.5 7.5-7.5s7.5 3.358 7.5 7.5v13.242c0 4.142-3.357 7.5-7.5 7.5z" fill="#423e4f"/></g><g><path d="m278.374 330.357c-4.143 0-7.5-3.358-7.5-7.5v-13.242c0-4.142 3.357-7.5 7.5-7.5s7.5 3.358 7.5 7.5v13.242c0 4.142-3.358 7.5-7.5 7.5z" fill="#423e4f"/></g><g><path d="m209.463 338.239c-9.131 0-17.813-3.954-23.821-10.849-2.722-3.123-2.396-7.86.728-10.582 3.122-2.72 7.858-2.396 10.581.727 3.159 3.625 7.72 5.704 12.513 5.704 4.794 0 9.354-2.079 12.514-5.704 2.72-3.123 7.459-3.448 10.581-.727 3.123 2.721 3.449 7.459.728 10.582-6.009 6.895-14.693 10.849-23.824 10.849z" fill="#423e4f"/></g></g><path d="m57.015 264.73c0-18.274 1.658-36.171 4.833-53.553h-55.976c-2.575 19.943-1.375 40.375 3.696 60.192l39.575 154.537h55.41c-30.104-46.673-47.538-101.932-47.538-161.176z" fill="#5c586f"/></g></svg>