<?xml version="1.0" encoding="iso-8859-1"?>
<!-- Generator: Adobe Illustrator 19.0.0, SVG Export Plug-In . SVG Version: 6.00 Build 0)  -->
<svg version="1.1" id="Capa_1" xmlns="http://www.w3.org/2000/svg" xmlns:xlink="http://www.w3.org/1999/xlink" x="0px" y="0px"
	 viewBox="0 0 512.002 512.002" style="enable-background:new 0 0 512.002 512.002;" xml:space="preserve">
<path style="fill:#FDCA74;" d="M29.029,233.956c0,0,64.792-106.198,226.972-106.198s226.972,106.198,226.972,106.198v23.677h-38.686
	l-44.379-15.011l-73.748,15.011L256,243.274l-68.2,14.358l-70.485-14.358l-65.264,14.358H29.029V233.956z"/>
<path style="fill:#E6B25B;" d="M65.085,242.88c0,0,54.816-89.844,188.147-115.093C93.095,128.992,29.029,233.956,29.029,233.956
	v23.677h23.024l13.033-2.868V242.88z"/>
<path style="fill:#FA7578;" d="M21.103,273.37c0,54.095,21.812,110.874,55.096,110.874h359.602
	c33.284,0,55.096-56.779,55.096-110.874l-7.925-15.737h-38.686l-44.379-15.011l-73.748,15.011L256,243.274l-68.2,14.358
	l-70.485-14.358l-65.264,14.358H29.029L21.103,273.37z"/>
<path style="fill:#F9545B;" d="M63.34,273.37l7.925-15.737h23.024l44.957-9.891l-21.93-4.467l-65.264,14.359H29.029l-7.925,15.737
	c0,54.095,21.812,110.873,55.096,110.873h42.237C85.152,384.244,63.34,327.465,63.34,273.37z"/>
<g>
	<path style="fill:#FA7578;" d="M256,188.021c-4.268,0-7.726-3.459-7.726-7.726v-22.19c0-4.267,3.458-7.726,7.726-7.726
		c4.268,0,7.726,3.459,7.726,7.726v22.19C263.727,184.562,260.267,188.021,256,188.021z"/>
	<path style="fill:#FA7578;" d="M170.409,188.35c-0.929,0-1.874-0.169-2.794-0.525c-3.978-1.544-5.95-6.02-4.407-9.999
		c4.276-11.018,15.014-18.467,16.224-19.281c3.542-2.38,8.342-1.438,10.722,2.104c2.376,3.536,1.44,8.327-2.086,10.711
		c-2.187,1.491-8.319,6.557-10.453,12.057C176.425,186.476,173.505,188.35,170.409,188.35z"/>
	<path style="fill:#FA7578;" d="M341.593,188.35c-3.096,0-6.017-1.874-7.205-4.933c-2.136-5.503-8.272-10.571-10.456-12.059
		c-3.518-2.397-4.445-7.196-2.059-10.722c2.384-3.525,7.163-4.466,10.697-2.09c1.21,0.813,11.949,8.263,16.225,19.281
		c1.543,3.979-0.43,8.455-4.407,9.999C343.468,188.181,342.522,188.35,341.593,188.35z"/>
</g>
<g>
	<path style="fill:#3B484A;" d="M172.971,339.963c-4.268,0-7.726-3.459-7.726-7.726v-15.027c0-4.267,3.458-7.726,7.726-7.726
		c4.268,0,7.726,3.459,7.726,7.726v15.027C180.697,336.503,177.239,339.963,172.971,339.963z"/>
	<path style="fill:#3B484A;" d="M339.03,339.963c-4.268,0-7.726-3.459-7.726-7.726v-15.027c0-4.267,3.458-7.726,7.726-7.726
		c4.268,0,7.726,3.459,7.726,7.726v15.027C346.756,336.503,343.298,339.963,339.03,339.963z"/>
	<path style="fill:#3B484A;" d="M256,347.984c-10.216,0-19.806-4.267-26.31-11.708c-2.809-3.213-2.481-8.094,0.732-10.902
		c3.21-2.807,8.093-2.481,10.901,0.732c3.57,4.084,8.918,6.425,14.676,6.425c5.758,0,11.106-2.342,14.676-6.425
		c2.808-3.213,7.689-3.541,10.901-0.732c3.213,2.808,3.542,7.689,0.732,10.902C275.807,343.717,266.217,347.984,256,347.984z"/>
</g>
<path style="fill:#E6B25B;" d="M188.452,279.435c-14.844,0-29.688-3.726-43.219-11.179c-15.233-8.39-33.424-8.39-48.658,0
	c-27.063,14.905-59.376,14.905-86.438,0c-9.471-5.216-12.922-17.123-7.705-26.595c5.216-9.473,17.123-12.922,26.596-7.705
	c15.233,8.392,33.424,8.392,48.658,0c27.063-14.905,59.376-14.905,86.438,0c15.233,8.392,33.424,8.392,48.658,0
	c27.063-14.904,59.376-14.905,86.438,0c15.233,8.39,33.424,8.39,48.658,0c27.063-14.904,59.376-14.904,86.438,0
	c15.233,8.39,33.424,8.39,48.658,0c9.474-5.217,21.379-1.767,26.595,7.705c5.217,9.473,1.767,21.379-7.705,26.595
	c-27.063,14.905-59.376,14.905-86.438,0c-15.233-8.388-33.424-8.388-48.658,0c-27.063,14.905-59.376,14.905-86.438,0
	c-15.234-8.388-33.424-8.388-48.658,0C218.14,275.708,203.296,279.435,188.452,279.435z"/>
<g>
</g>
<g>
</g>
<g>
</g>
<g>
</g>
<g>
</g>
<g>
</g>
<g>
</g>
<g>
</g>
<g>
</g>
<g>
</g>
<g>
</g>
<g>
</g>
<g>
</g>
<g>
</g>
<g>
</g>
</svg>
