<svg id="Capa_1" enable-background="new 0 0 497 497" height="512" viewBox="0 0 497 497" width="512" xmlns="http://www.w3.org/2000/svg"><g><path d="m306.871 26.352c0-14.554 11.798-26.352 26.352-26.352 14.554 0 26.352 11.798 26.352 26.352 0-14.554 11.799-26.352 26.352-26.352 14.554 0 26.352 11.798 26.352 26.353.001 18.617 16.734 33.062 27.863 46.06 46.664 54.498 66.645 146.813 15.199 204.986-26.276 29.712-66.444 45.444-105.234 49.303-11.197 1.114-22.123 1.159-33.771 0-38.789-3.858-78.958-19.591-105.234-49.303-51.446-58.173-31.464-150.488 15.199-204.986 11.129-12.998 27.862-27.443 27.863-46.06.003-14.555 11.801-26.353 26.355-26.353s26.352 11.798 26.352 26.352z" fill="#ffca8a"/><path d="m137.425 195.798c0-14.554 11.798-26.352 26.352-26.352 14.554 0 26.352 11.798 26.352 26.352 0-14.554 11.798-26.352 26.352-26.352s26.352 11.798 26.352 26.353c.001 18.617 16.734 33.062 27.863 46.06 46.664 54.498 66.645 146.813 15.199 204.986-26.276 29.712-66.444 45.444-105.234 49.303-11.197 1.114-22.123 1.159-33.771 0-38.789-3.858-78.958-19.591-105.234-49.303-51.446-58.173-31.464-150.488 15.199-204.986 11.129-12.998 27.862-27.443 27.863-46.06 0-14.555 11.798-26.353 26.352-26.353 14.556 0 26.355 11.799 26.355 26.352z" fill="#ffdebb"/><g><path d="m163.777 270.548c-4.142 0-7.5-3.358-7.5-7.5v-26.47c0-4.142 3.358-7.5 7.5-7.5s7.5 3.358 7.5 7.5v26.47c0 4.142-3.358 7.5-7.5 7.5z" fill="#ffca8a"/></g><g><path d="m230.789 267.744c-1.249 0-2.514-.313-3.679-.97-15.675-8.846-17.01-26.156-17.059-26.889-.278-4.133 2.848-7.708 6.98-7.986 4.124-.268 7.675 2.82 7.981 6.925.047.525 1.01 10.112 9.469 14.886 3.607 2.036 4.881 6.61 2.846 10.218-1.378 2.443-3.92 3.816-6.538 3.816z" fill="#ffca8a"/></g><g><path d="m96.765 267.744c-2.618 0-5.16-1.373-6.539-3.815-2.036-3.607-.762-8.182 2.846-10.218 8.514-4.805 9.435-14.486 9.47-14.896.278-4.132 3.846-7.218 7.983-6.948 4.133.278 7.256 3.886 6.978 8.019-.049.732-1.384 18.042-17.059 26.889-1.165.657-2.431.969-3.679.969z" fill="#ffca8a"/></g><g><g><path d="m96.114 331.682c-4.142 0-7.5-3.358-7.5-7.5v-13.002c0-4.142 3.358-7.5 7.5-7.5s7.5 3.358 7.5 7.5v13.002c0 4.142-3.358 7.5-7.5 7.5z" fill="#423e4f"/></g><g><path d="m231.439 331.682c-4.142 0-7.5-3.358-7.5-7.5v-13.002c0-4.142 3.358-7.5 7.5-7.5s7.5 3.358 7.5 7.5v13.002c0 4.142-3.357 7.5-7.5 7.5z" fill="#423e4f"/></g><g><path d="m163.777 339.422c-9.005 0-17.567-3.899-23.493-10.699-2.721-3.123-2.396-7.86.727-10.582 3.123-2.721 7.86-2.396 10.582.727 3.076 3.53 7.517 5.554 12.185 5.554s9.109-2.024 12.185-5.554c2.721-3.123 7.459-3.447 10.582-.727 3.123 2.722 3.448 7.459.727 10.582-5.928 6.799-14.49 10.699-23.495 10.699z" fill="#423e4f"/></g></g><g><path d="m333.223 101.102c-4.142 0-7.5-3.358-7.5-7.5v-26.47c0-4.142 3.358-7.5 7.5-7.5s7.5 3.358 7.5 7.5v26.47c0 4.142-3.358 7.5-7.5 7.5z" fill="#ffdebb"/></g><g><path d="m400.235 98.298c-1.249 0-2.514-.313-3.679-.97-15.675-8.846-17.01-26.156-17.059-26.888-.278-4.133 2.848-7.708 6.98-7.986 4.13-.263 7.675 2.82 7.981 6.925.047.525 1.01 10.112 9.469 14.886 3.607 2.036 4.881 6.61 2.846 10.218-1.377 2.442-3.92 3.815-6.538 3.815z" fill="#ffdebb"/></g><g><path d="m266.211 98.298c-2.618 0-5.16-1.373-6.539-3.815-2.036-3.607-.762-8.182 2.846-10.218 8.514-4.805 9.435-14.485 9.47-14.895.278-4.133 3.851-7.212 7.983-6.948 4.133.278 7.256 3.886 6.978 8.019-.049.732-1.384 18.042-17.059 26.888-1.164.656-2.43.969-3.679.969z" fill="#ffdebb"/></g><g><g><path d="m265.561 152.446c-4.142 0-7.5-3.358-7.5-7.5v-13.002c0-4.142 3.358-7.5 7.5-7.5s7.5 3.358 7.5 7.5v13.002c0 4.142-3.358 7.5-7.5 7.5z" fill="#423e4f"/></g><g><path d="m400.886 152.446c-4.142 0-7.5-3.358-7.5-7.5v-13.002c0-4.142 3.358-7.5 7.5-7.5s7.5 3.358 7.5 7.5v13.002c0 4.142-3.358 7.5-7.5 7.5z" fill="#423e4f"/></g><g><path d="m333.223 160.186c-9.005 0-17.567-3.899-23.493-10.699-2.721-3.123-2.396-7.86.727-10.582 3.123-2.721 7.861-2.396 10.582.727 3.076 3.53 7.517 5.554 12.185 5.554s9.109-2.024 12.185-5.554c2.721-3.123 7.458-3.447 10.582-.727 3.123 2.722 3.448 7.459.727 10.582-5.927 6.8-14.49 10.699-23.495 10.699z" fill="#423e4f"/></g></g><path d="m67 340.159c0-62.021 22.095-119.323 59.471-165.739-4.332-3.126-9.648-4.974-15.399-4.974-14.554 0-26.352 11.798-26.352 26.354-.001 18.617-16.734 33.062-27.863 46.06-46.663 54.497-66.645 146.812-15.199 204.985 18.999 21.483 45.261 35.653 73.013 43.315-30.181-43.369-47.671-94.818-47.671-150.001z" fill="#ffca8a"/></g></svg>