<svg id="Capa_1" enable-background="new 0 0 497 497" height="512" viewBox="0 0 497 497" width="512" xmlns="http://www.w3.org/2000/svg"><g><path d="m200.649 152.601c-6.466-13.784-12.183-25.279-16.694-34.07-5.804-11.309-1.672-25.18 9.359-31.496l13.01-7.448c11.749-6.726 26.737-2.318 32.953 9.708 12.989 25.129 34.912 70.36 56.845 128.36h-88.417z" fill="#f9ed80"/><path d="m268.545 181.162c-10.073-47.979-21.033-86.159-27.97-108.415-3.783-12.135 2.661-25.095 14.611-29.429l14.093-5.111c12.727-4.616 26.739 2.292 30.806 15.204 11.929 37.876 34.421 117.79 46.631 215.547-3.962 4.767-6.761 10.577-7.909 17.036-.385 2.167-.957 4.26-1.694 6.266h-60.363z" fill="#f9d888"/><path d="m299.826 221.666c12.573-76.833 30.055-138.342 40.078-170.168 4.067-12.913 18.079-19.82 30.806-15.204l14.093 5.111c11.95 4.334 18.394 17.294 14.611 29.429-10.506 33.705-30.238 103.918-42.144 189.408v39.449l-57.443 34.952v-112.977z" fill="#f9ed80"/><path d="m414.632 255.687c10.58-52.397 22.523-94.134 29.908-117.826 3.783-12.135-2.661-25.095-14.611-29.429l-14.093-5.111c-12.727-4.616-26.739 2.292-30.806 15.204-9.047 28.727-24.172 81.643-36.278 148.18z" fill="#f9d888"/><g><path d="m468.803 260.119c10.262-26.894 19.546-48.433 26.081-62.881 5.241-11.587.431-25.24-10.906-31.003l-13.364-6.793c-12.066-6.133-26.814-.99-32.428 11.326-8.471 18.583-21.076 47.865-34.597 84.919z" fill="#f9ed80"/></g><path d="m105.275 135.089c-4.931-14.891-14.944-26.432-26.89-32.753-9.054-4.79-20.184-1.105-24.59 8.143-5.813 12.202-6.959 27.438-2.028 42.329.673 2.033 1.444 4.002 2.298 5.905-2.045-.412-4.136-.727-6.267-.932-15.862-1.532-30.68 3.13-41.329 11.761-7.568 6.133-8.658 17.422-2.404 24.891 8.8 10.509 22.452 17.921 38.314 19.454 21.952 2.12 41.907-7.624 51.575-23.332 13.174-12.912 18.254-34.529 11.321-55.466z" fill="#e7886e"/><path d="m334.688 288.952-.189-.223c-10.595-12.448-6.655-26.853-6.681-27.557 2.236-14.017-5.258-27.78-18.245-33.508l-1.333-.588c-16.149-7.123-17.956-22.677-18.254-23.295-3.252-13.497-15.021-23.229-28.889-23.89l-2.085-.099c-17.367-.827-24.61-14.245-25.052-14.655-8.065-11.681-22.99-16.457-36.338-11.629l-2.269.821c-14.674 5.307-26.101-2.291-26.304-2.353-13.214-7.501-29.908-4.407-39.558 7.33l-1.409 1.714c-8.472 10.305-19.669 11.057-19.792 11.098-16.009 2.248-27.66 16.337-26.862 32.483.387 7.821-2.178 15.502-7.185 21.523l-1.419 1.706c-9.717 11.682-9.621 28.66.228 40.231l.19.223c10.595 12.448 6.655 26.853 6.681 27.557-2.236 14.017 5.258 27.78 18.245 33.508l1.333.588c16.149 7.123 17.956 22.677 18.254 23.296 3.252 13.497 15.021 23.229 28.889 23.89l2.085.099c17.368.827 24.61 14.245 25.052 14.655 8.065 11.681 22.99 16.457 36.338 11.629l2.269-.821c14.674-5.307 26.101 2.291 26.304 2.353 13.214 7.501 29.908 4.407 39.558-7.33l1.409-1.714c8.472-10.305 19.669-11.057 19.792-11.099 16.009-2.248 27.66-16.337 26.862-32.483-.387-7.821 2.178-15.502 7.185-21.523l1.419-1.706c9.715-11.681 9.619-28.66-.229-40.231z" fill="#e7886e"/><path d="m99.871 297.125c0-54.636 17.979-105.638 49.079-148.865-7.411 1.123-14.403 4.895-19.46 11.045l-1.409 1.714c-8.472 10.304-19.669 11.056-19.792 11.098-16.009 2.248-27.66 16.337-26.862 32.483.386 7.821-2.178 15.502-7.185 21.522l-1.419 1.706c-9.717 11.682-9.621 28.66.228 40.231l.19.223c10.595 12.448 6.655 26.853 6.681 27.557-2.236 14.017 5.258 27.78 18.245 33.508l1.333.588c.973.429 1.891.89 2.763 1.376-1.567-11.207-2.392-22.613-2.392-34.186z" fill="#e27858"/><path d="m451.281 255.687h-76.305c-17.809 0-33.053 12.773-36.17 30.307-3.117 17.534-18.361 30.307-36.17 30.307h-97.143c-17.809 0-33.053-12.773-36.17-30.307-3.117-17.534-18.361-30.307-36.17-30.307h-76.305c-22.862 0-40.171 20.658-36.17 43.167l18.164 102.179c6.285 35.354 37.021 61.108 72.929 61.108h284.586c35.908 0 66.645-25.755 72.929-61.108l18.164-102.179c4.002-22.51-13.307-43.167-36.169-43.167z" fill="#60d9a7"/><g><g><path d="m163.354 387.246c-4.143 0-7.5-3.358-7.5-7.5v-17.431c0-4.142 3.357-7.5 7.5-7.5s7.5 3.358 7.5 7.5v17.431c0 4.142-3.357 7.5-7.5 7.5z" fill="#423e4f"/></g><g><path d="m344.775 387.246c-4.143 0-7.5-3.358-7.5-7.5v-17.431c0-4.142 3.357-7.5 7.5-7.5s7.5 3.358 7.5 7.5v17.431c0 4.142-3.357 7.5-7.5 7.5z" fill="#423e4f"/></g><g><path d="m254.064 397.623c-11.332 0-22.109-4.909-29.569-13.467-2.722-3.123-2.396-7.86.727-10.582 3.122-2.721 7.859-2.397 10.582.726 4.609 5.289 11.266 8.323 18.261 8.323 6.996 0 13.652-3.033 18.262-8.323 2.722-3.123 7.459-3.448 10.582-.726 3.123 2.721 3.448 7.459.727 10.582-7.462 8.558-18.239 13.467-29.572 13.467z" fill="#423e4f"/></g></g><path d="m99.871 297.125c0-14.079 1.21-27.912 3.513-41.439h-46.536c-22.862 0-40.171 20.658-36.17 43.167l18.164 102.179c6.285 35.354 37.021 61.108 72.929 61.108h49.703c-38.755-46.423-61.603-103.411-61.603-165.015z" fill="#00cd8c"/></g></svg>