<svg id="Capa_1" enable-background="new 0 0 497 497" height="512" viewBox="0 0 497 497" width="512" xmlns="http://www.w3.org/2000/svg"><path d="m113.953 151.319c-1.292 23.137-5.895 44.552-19.2 65.286-46.092 71.829-34.8 169.16 26.052 228.774 70.955 69.51 187.615 68.77 257.514-1.911 59.498-60.164 69.472-157.135 23.132-228.093-16.44-25.174-18.776-52.51-18.836-81.536-.147-72.649-61.515-133.839-134.114-133.839-68.393 0-126.381 53.673-133.402 120.5z" fill="#00c77e"/><path d="m278.842 479.127c-26.965-12.877-50.888-32.268-71.361-53.861-22.61-23.847-43.799-49.849-60.116-78.454-26.055-45.677-37.856-97.502-42.612-149.667-2.607 6.575-5.885 13.046-10 19.46-46.092 71.829-34.801 169.16 26.052 228.774 48.999 48.001 119.792 62.5 181.932 43.601-8.093-2.834-16.067-6.115-23.895-9.853z" fill="#04b56c"/><path d="m339.37 138.716c2.507-50.327-39.178-94.876-89.576-95.576-50.842-.706-92.278 40.295-92.278 90.975 0 38.134-5.375 72.92-26.463 105.784-14.37 22.394-22.509 49.167-21.971 77.874 1.433 76.332 64.76 137.656 141.1 136.753 76.237-.901 137.76-62.982 137.76-139.433 0-28.094-8.31-54.246-22.604-76.135-19.352-29.633-27.729-64.892-25.968-100.242z" fill="#5bde8d"/><ellipse cx="192.573" cy="155.049" fill="#fff" rx="15.825" ry="12.606"/><ellipse cx="304.427" cy="155.049" fill="#fff" rx="15.825" ry="12.606"/><circle cx="248.501" cy="309.858" fill="#e7886e" r="78.639"/><g fill="#333942"><path d="m200.963 154.169c-4.143 0-7.5-3.358-7.5-7.5v-9.135c0-4.142 3.357-7.5 7.5-7.5s7.5 3.358 7.5 7.5v9.135c0 4.142-3.358 7.5-7.5 7.5z"/><path d="m296.037 154.169c-4.143 0-7.5-3.358-7.5-7.5v-9.135c0-4.142 3.357-7.5 7.5-7.5s7.5 3.358 7.5 7.5v9.135c0 4.142-3.357 7.5-7.5 7.5z"/><path d="m248.5 159.606c-6.971 0-13.6-3.019-18.187-8.281-2.722-3.123-2.397-7.86.726-10.582 3.122-2.722 7.86-2.396 10.581.726 1.738 1.994 4.246 3.138 6.88 3.138s5.142-1.144 6.88-3.138c2.721-3.123 7.459-3.447 10.581-.726 3.123 2.722 3.447 7.459.726 10.582-4.587 5.263-11.216 8.281-18.187 8.281z"/></g><path d="m207.481 425.267c-22.61-23.847-43.799-49.849-60.116-78.454-13.894-24.356-23.739-50.514-30.622-77.489-5.248 15.122-7.979 31.467-7.66 48.449 1.363 72.619 58.715 131.645 130.027 136.44-11.307-8.838-21.851-18.634-31.629-28.946z" fill="#00c976"/><path d="m227.42 234.095c-21.718 6.055-40.686 21.358-50.649 43.531-17.801 39.615-.117 86.16 39.498 103.962 31.078 13.965 66.422 6.091 88.806-17.078-70.324-29.973-82.274-95.697-77.655-130.415z" fill="#dc6646"/></svg>