<?xml version="1.0" encoding="iso-8859-1"?>
<!-- Generator: Adobe Illustrator 19.0.0, SVG Export Plug-In . SVG Version: 6.00 Build 0)  -->
<svg version="1.1" id="Capa_1" xmlns="http://www.w3.org/2000/svg" xmlns:xlink="http://www.w3.org/1999/xlink" x="0px" y="0px"
	 viewBox="0 0 511.999 511.999" style="enable-background:new 0 0 511.999 511.999;" xml:space="preserve">
<path style="fill:#FADC60;" d="M102.732,353.364l-91.155,91.155c-15.437,15.437-15.437,40.466,0,55.903l0,0
	c15.437,15.437,40.466,15.437,55.903,0l91.155-91.155L102.732,353.364z"/>
<rect x="71.444" y="373.154" transform="matrix(0.7071 0.7071 -0.7071 0.7071 316.074 38.99)" style="fill:#F2C42C;" width="79.055" height="55.753"/>
<path style="fill:#B6A4FF;" d="M463.437,48.562L463.437,48.562c-64.75-64.75-169.731-64.75-234.481,0L44.009,233.51
	c-26.585,26.585-26.585,69.687,0,96.271l138.21,138.209c26.585,26.585,69.687,26.585,96.27,0l184.947-184.947
	C528.187,218.293,528.187,113.312,463.437,48.562z"/>
<g>
	<path style="fill:#937FE6;" d="M463.437,48.562L463.437,48.562c-3.685-3.685-7.507-7.149-11.438-10.416
		c54.114,65.137,50.65,161.978-10.415,223.043L256.636,446.137c-26.585,26.585-69.687,26.585-96.27,0l21.853,21.853
		c26.585,26.585,69.687,26.585,96.27,0l184.947-184.947C528.187,218.293,528.187,113.312,463.437,48.562z"/>
	<path style="fill:#937FE6;" d="M347.054,73.362L347.054,73.362c-11.8-11.8-30.929-11.8-42.729,0l-161.69,161.69
		c-11.8,11.8-11.8,30.929,0,42.729l0,0c11.8,11.799,30.929,11.799,42.729,0l161.69-161.69
		C358.854,104.291,358.854,85.162,347.054,73.362z"/>
	<path style="fill:#937FE6;" d="M438.637,164.945L438.637,164.945c11.8,11.8,11.8,30.929,0,42.729l-161.69,161.69
		c-11.8,11.8-30.929,11.8-42.729,0l0,0c-11.8-11.8-11.8-30.929,0-42.729l161.69-161.69
		C407.708,153.146,426.839,153.146,438.637,164.945z"/>
</g>
<g>
	<path style="fill:#3A484A;" d="M88.898,307.992c-3.017-3.017-3.017-7.91,0-10.927l10.416-10.416c3.017-3.017,7.909-3.017,10.927,0
		c3.017,3.017,3.017,7.91,0,10.927l-10.416,10.416C96.808,311.009,91.916,311.01,88.898,307.992z"/>
	<path style="fill:#3A484A;" d="M204.008,423.101c-3.017-3.017-3.017-7.91,0-10.927l10.416-10.417c3.017-3.017,7.909-3.017,10.927,0
		c3.017,3.017,3.017,7.91,0,10.927L214.935,423.1C211.916,426.119,207.025,426.119,204.008,423.101z"/>
	<path style="fill:#3A484A;" d="M140.892,371.107c-7.112-7.112-10.818-16.761-10.166-26.471c0.285-4.258,3.968-7.477,8.226-7.192
		c4.257,0.287,7.478,3.969,7.192,8.227c-0.353,5.261,1.716,10.55,5.675,14.509c3.96,3.96,9.248,6.029,14.509,5.675
		c4.257-0.287,7.941,2.933,8.227,7.192c0.285,4.258-2.934,7.941-7.192,8.226C157.654,381.925,148.005,378.219,140.892,371.107z"/>
</g>
<g>
</g>
<g>
</g>
<g>
</g>
<g>
</g>
<g>
</g>
<g>
</g>
<g>
</g>
<g>
</g>
<g>
</g>
<g>
</g>
<g>
</g>
<g>
</g>
<g>
</g>
<g>
</g>
<g>
</g>
</svg>
