<?xml version="1.0" encoding="iso-8859-1"?>
<!-- Generator: Adobe Illustrator 19.0.0, SVG Export Plug-In . SVG Version: 6.00 Build 0)  -->
<svg version="1.1" id="Capa_1" xmlns="http://www.w3.org/2000/svg" xmlns:xlink="http://www.w3.org/1999/xlink" x="0px" y="0px"
	 viewBox="0 0 512 512" style="enable-background:new 0 0 512 512;" xml:space="preserve">
<path style="fill:#C06376;" d="M200.079,395.802l-4.822-10.056c-2.11-4.4-7.387-6.256-11.787-4.146L16.548,461.646
	c-4.4,2.11-6.256,7.387-4.146,11.787l4.822,10.056c2.11,4.4,7.387,6.256,11.787,4.146l166.921-80.046
	C200.333,405.479,202.189,400.202,200.079,395.802z"/>
<path style="opacity:0.15;enable-background:new    ;" d="M200.079,395.802l-4.822-10.056c-2.11-4.4-7.387-6.256-11.787-4.146
	L16.548,461.646c-4.4,2.11-6.256,7.387-4.146,11.787l4.822,10.056c2.11,4.4,7.387,6.256,11.787,4.146l166.921-80.046
	C200.333,405.479,202.189,400.202,200.079,395.802z"/>
<path style="opacity:0.15;enable-background:new    ;" d="M200.079,395.802l-4.822-10.056c-2.11-4.4-7.387-6.256-11.787-4.146
	l-48.552,23.283c1.251,4.587,2.908,9.128,5.036,13.568l0,0c2.129,4.44,4.633,8.575,7.426,12.422l48.552-23.283
	C200.333,405.479,202.189,400.202,200.079,395.802z"/>
<circle style="fill:#E7EEEF;" cx="443.47" cy="272.9" r="63.44"/>
<path style="opacity:0.08;enable-background:new    ;" d="M497.36,306.363c2.747-4.437,4.936-9.187,6.521-14.135
	c0.006-0.018,0.011-0.035,0.017-0.053c0.256-0.801,0.495-1.607,0.719-2.418c0.015-0.054,0.03-0.109,0.044-0.163
	c0.222-0.812,0.43-1.628,0.62-2.449c0.001-0.006,0.003-0.012,0.004-0.019c0.965-4.175,1.506-8.457,1.608-12.779
	c0.003-0.129,0.008-0.257,0.01-0.385c0.013-0.752,0.011-1.506-0.003-2.26c-0.003-0.174-0.007-0.348-0.012-0.521
	c-0.02-0.747-0.051-1.494-0.097-2.241c-0.009-0.152-0.022-0.304-0.033-0.456c-0.054-0.785-0.118-1.57-0.202-2.355
	c0-0.001,0-0.001,0-0.001c-0.742,2.022-1.61,3.997-2.574,5.928c-0.566-8.443-2.697-16.921-6.579-25.017
	c-9.367-19.534-26.789-32.586-46.372-37.119c-11.585-1.402-23.69,0.355-34.992,5.775c-5.501,2.638-10.435,5.979-14.775,9.843
	c0.42,8.064,4.718,17.466,16.587,24.339c21.303,12.336,28.701,40.71,29.111,53.523c-19.165-1.978-36.881-13.573-45.823-32.219
	c-6.722-14.018-7.222-29.405-2.62-43.058c-18.437,18.509-24.195,47.312-12.255,72.211c15.151,31.594,53.045,44.924,84.639,29.773
	C482.234,324.674,491.199,316.306,497.36,306.363z"/>
<g>
	<circle style="fill:#E7EEEF;" cx="329.06" cy="327.77" r="63.44"/>
	<circle style="fill:#E7EEEF;" cx="214.65" cy="382.63" r="63.44"/>
</g>
<path style="opacity:0.08;enable-background:new    ;" d="M286.727,326.046c13.679,28.525,47.892,40.56,76.417,26.881
	c14.018-6.722,24.041-18.408,29-31.935c2.788,25.975-10.754,52.04-35.653,63.98c-31.594,15.151-69.488,1.821-84.639-29.773
	c-11.94-24.899-6.181-53.702,12.255-72.211C279.505,296.642,280.005,312.029,286.727,326.046z"/>
<path style="opacity:0.08;enable-background:new    ;" d="M172.315,380.912c13.679,28.525,47.892,40.56,76.417,26.881
	c14.018-6.722,24.041-18.408,29-31.935c2.788,25.975-10.754,52.04-35.652,63.98c-31.594,15.151-69.488,1.821-84.639-29.773
	c-11.94-24.899-6.181-53.702,12.255-72.211C165.093,351.507,165.593,366.894,172.315,380.912z"/>
<path style="fill:#C06376;" d="M505.248,243.276c-16.361-34.119-57.283-48.514-91.402-32.152l-0.037,0.018
	c-2.517,1.208-4.244,3.618-4.568,6.391c-1.027,8.805,2.427,20.46,16.455,28.582c23.974,13.882,30.345,48.094,28.956,57.559
	c-1.724,11.742-3.172,20.454,2.066,28.597c2.712,4.215,8.104,5.915,12.744,4.019c1.219-0.498,2.43-1.035,3.633-1.612
	C507.214,318.317,521.609,277.394,505.248,243.276z"/>
<path style="opacity:0.08;enable-background:new    ;" d="M505.804,244.514c-5.897,15.73-23.467,39.83-58.397,26.722
	c6.256,13.279,8.047,26.977,7.246,32.438c-1.724,11.742-3.172,20.454,2.066,28.597c2.712,4.215,8.105,5.915,12.744,4.019
	c1.219-0.498,2.43-1.035,3.633-1.612C506.804,318.513,521.239,278.379,505.804,244.514z"/>
<path style="fill:#C06376;" d="M166.946,311.249l-8.556-8.556c-3.744-3.744-9.813-3.744-13.557,0L2.808,444.719
	c-3.744,3.744-3.744,9.813,0,13.557l8.556,8.556c3.744,3.744,9.813,3.744,13.557,0l142.025-142.025
	C170.69,321.063,170.69,314.993,166.946,311.249z"/>
<path style="opacity:0.15;enable-background:new    ;" d="M166.946,311.25l-8.556-8.556c-3.744-3.744-9.814-3.744-13.557,0
	l-41.311,41.311c2.932,4.244,6.262,8.296,10.04,12.073l0,0c3.777,3.777,7.829,7.108,12.073,10.04l41.311-41.311
	C170.69,321.063,170.69,314.993,166.946,311.25z"/>
<circle style="fill:#E7EEEF;" cx="371.81" cy="97.83" r="68.835"/>
<path style="opacity:0.08;enable-background:new    ;" d="M439.013,112.676c1.215-5.53,1.744-11.18,1.585-16.815
	c0-0.02-0.001-0.04-0.001-0.06c-0.027-0.912-0.072-1.824-0.135-2.734c-0.004-0.061-0.009-0.122-0.013-0.183
	c-0.065-0.911-0.146-1.821-0.248-2.729c-0.001-0.007-0.002-0.014-0.003-0.021c-0.516-4.621-1.504-9.198-2.955-13.658
	c-0.043-0.133-0.085-0.266-0.128-0.398c-0.257-0.775-0.531-1.545-0.817-2.312c-0.066-0.177-0.133-0.353-0.2-0.53
	c-0.289-0.757-0.59-1.51-0.906-2.259c-0.064-0.152-0.132-0.303-0.198-0.455c-0.338-0.784-0.686-1.564-1.055-2.337
	c0-0.001-0.001-0.001-0.001-0.001c-0.031,2.337-0.209,4.671-0.501,6.994c-3.619-8.437-8.853-16.348-15.741-23.236
	c-16.62-16.62-39.151-23.707-60.826-21.296c-12.362,2.736-24.119,8.893-33.735,18.51c-4.681,4.681-8.528,9.876-11.578,15.393
	c3.333,8.103,11.117,16.178,25.74,18.939c26.245,4.955,44.033,31.334,49.066,44.3c-20.328,4.876-42.635-0.614-58.5-16.478
	c-11.927-11.927-17.979-27.496-18.184-43.127c-12.206,25.582-7.73,57.135,13.455,78.32c26.882,26.882,70.466,26.882,97.348,0
	C430.124,136.864,436.287,125.072,439.013,112.676z"/>
<g>
	<circle style="fill:#E7EEEF;" cx="274.46" cy="195.18" r="68.835"/>
	<circle style="fill:#E7EEEF;" cx="177.11" cy="292.53" r="68.835"/>
</g>
<path style="opacity:0.08;enable-background:new    ;" d="M230.516,208.658c24.271,24.271,63.621,24.271,87.891,0
	c11.927-11.927,17.979-27.496,18.184-43.127c12.206,25.582,7.73,57.135-13.455,78.32c-26.882,26.882-70.466,26.882-97.348,0
	c-21.185-21.185-25.661-52.739-13.455-78.32C212.538,181.162,218.589,196.731,230.516,208.658z"/>
<path style="opacity:0.08;enable-background:new    ;" d="M133.168,306.006c24.271,24.271,63.621,24.271,87.891,0
	c11.927-11.927,17.979-27.496,18.184-43.127c12.206,25.582,7.73,57.135-13.455,78.32c-26.882,26.882-70.466,26.882-97.348,0
	c-21.185-21.185-25.661-52.739-13.455-78.32C115.19,278.51,121.241,294.079,133.168,306.006z"/>
<g>
	<path style="fill:#485358;" d="M245.585,174.893c-1.92,0-3.839-0.732-5.303-2.196c-2.929-2.93-2.929-7.678,0-10.607l4.703-4.703
		c2.929-2.928,7.678-2.928,10.606,0c2.929,2.93,2.929,7.678,0,10.607l-4.703,4.703C249.424,174.16,247.504,174.893,245.585,174.893z
		"/>
	<path style="fill:#485358;" d="M302.248,231.555c-1.919,0-3.838-0.732-5.303-2.196c-2.929-2.929-2.929-7.678-0.001-10.606
		l4.703-4.703c2.929-2.93,7.677-2.929,10.607-0.001c2.929,2.929,2.929,7.678,0.001,10.606l-4.703,4.703
		C306.087,230.822,304.167,231.555,302.248,231.555z"/>
	<path style="fill:#485358;" d="M280.212,210.935c-5.69,0-11.165-2.25-15.211-6.296c-4.395-4.395-6.672-10.479-6.246-16.689
		c0.283-4.132,3.874-7.248,7.996-6.969c4.132,0.283,7.253,3.863,6.969,7.996c-0.129,1.884,0.559,3.727,1.887,5.055
		c1.329,1.328,3.174,2.021,5.056,1.888c4.123-0.271,7.712,2.836,7.996,6.969s-2.837,7.713-6.969,7.996
		C281.197,210.918,280.703,210.935,280.212,210.935z"/>
</g>
<path style="fill:#C06376;" d="M424.373,45.267c-29.03-29.03-76.097-29.03-105.126,0l-0.031,0.032
	c-2.141,2.143-3.041,5.231-2.374,8.186c2.119,9.382,9.851,20.066,27.132,23.329c29.536,5.577,48.374,38.299,50.36,48.487
	c2.464,12.639,4.117,22.077,12.411,28.525c4.293,3.338,10.424,3.136,14.49-0.475c1.068-0.949,2.115-1.934,3.138-2.958
	C453.403,121.363,453.403,74.296,424.373,45.267z"/>
<path style="opacity:0.08;enable-background:new    ;" d="M425.387,46.334c-0.373,18.223-9.678,49.216-50.149,48.375
	c11.184,11.339,17.949,24.714,19.095,30.592c2.463,12.639,4.117,22.077,12.411,28.526c4.293,3.338,10.425,3.136,14.49-0.475
	c1.068-0.949,2.115-1.934,3.138-2.958C453.054,121.712,453.378,75.438,425.387,46.334z"/>
<g>
</g>
<g>
</g>
<g>
</g>
<g>
</g>
<g>
</g>
<g>
</g>
<g>
</g>
<g>
</g>
<g>
</g>
<g>
</g>
<g>
</g>
<g>
</g>
<g>
</g>
<g>
</g>
<g>
</g>
</svg>
