<svg id="Capa_1" enable-background="new 0 0 497 497" height="512" viewBox="0 0 497 497" width="512" xmlns="http://www.w3.org/2000/svg"><g><path d="m479.337.58-6.631 1.955c-13.673 4.031-26.117 11.425-36.197 21.504l-331.167 331.167 36.451 36.451 331.168-331.166c10.08-10.08 17.473-22.524 21.504-36.197l1.955-6.631c3.082-10.451-6.632-20.165-17.083-17.083z" fill="#c7c5cb"/><path d="m371.877 203.906-78.782-78.782c-16.003-16.003-41.949-16.003-57.952 0-16.003 16.003-16.003 41.949 0 57.952l78.782 78.782c16.003 16.003 41.949 16.003 57.952 0s16.003-41.949 0-57.952z" fill="#60d9a7"/><path d="m463.503 124.582c-10.292-16.994-23.883-34.371-40.298-50.786s-33.792-30.006-50.786-40.298c-19.577-11.856-44.724-8.778-60.908 7.405l-15.724 15.724c-16.184 16.184-19.261 41.331-7.406 60.908 10.292 16.994 23.883 34.371 40.298 50.786s33.792 30.006 50.786 40.298c19.577 11.856 44.724 8.778 60.908-7.406l15.724-15.724c16.184-16.183 19.261-41.33 7.406-60.907z" fill="#e27858"/><path d="m318.637 269.447c-10.292-16.994-23.883-34.371-40.298-50.786s-33.792-30.006-50.786-40.298c-19.577-11.856-44.724-8.778-60.908 7.406l-15.724 15.723c-16.184 16.184-19.261 41.331-7.406 60.908 10.292 16.994 23.883 34.371 40.298 50.786s33.792 30.006 50.786 40.298c19.577 11.856 44.724 8.778 60.908-7.406l15.724-15.724c16.184-16.183 19.262-41.33 7.406-60.907z" fill="#e27858"/><path d="m239.011 185.776c-3.828-2.63-7.653-5.109-11.458-7.413-19.577-11.856-44.724-8.778-60.908 7.406l-15.724 15.723c-16.184 16.184-19.261 41.331-7.406 60.908 10.292 16.994 23.883 34.371 40.298 50.786 1.118 1.118 2.242 2.22 3.368 3.312 4.199-44.785 21.646-90.488 51.83-130.722z" fill="#dc6742"/><path d="m295.738 128.909c40.096-30.237 85.668-47.8 130.37-52.169-.958-.985-1.925-1.967-2.903-2.945-16.415-16.415-33.792-30.006-50.786-40.298-19.577-11.856-44.724-8.778-60.908 7.405l-15.723 15.724c-16.184 16.184-19.261 41.331-7.406 60.908 2.287 3.778 4.747 7.574 7.356 11.375z" fill="#dc6742"/><g><g><path d="m329.895 88.667c-2.93-2.929-2.93-7.678-.001-10.607l7.536-7.536c2.93-2.929 7.679-2.929 10.606 0 2.93 2.929 2.93 7.678.001 10.607l-7.536 7.536c-2.928 2.927-7.677 2.93-10.606 0z" fill="#423e4f"/></g><g><path d="m408.333 167.105c-2.929-2.929-2.929-7.678.001-10.606l7.537-7.536c2.928-2.929 7.677-2.928 10.606 0 2.929 2.929 2.929 7.678-.001 10.606l-7.537 7.536c-2.927 2.929-7.677 2.93-10.606 0z" fill="#423e4f"/></g><g><path d="m356.819 111.504c.284-4.133 3.861-7.248 7.997-6.968 4.132.284 7.252 3.864 6.968 7.997-.236 3.439 1.021 6.804 3.45 9.233s5.781 3.687 9.233 3.451c4.119-.281 7.713 2.836 7.996 6.969.283 4.132-2.836 7.712-6.969 7.996-16.26 1.118-29.797-12.371-28.675-28.678z" fill="#423e4f"/></g></g><g><g><path d="m185.028 233.532c-2.929-2.929-2.929-7.678.001-10.606l7.537-7.536c2.929-2.93 7.678-2.928 10.606 0 2.929 2.929 2.929 7.678-.001 10.606l-7.537 7.536c-2.927 2.929-7.676 2.93-10.606 0z" fill="#423e4f"/></g><g><path d="m263.468 311.971c-2.93-2.929-2.93-7.678-.001-10.607l7.536-7.536c2.93-2.929 7.679-2.929 10.606 0 2.93 2.929 2.93 7.678.001 10.607l-7.536 7.536c-2.928 2.928-7.677 2.93-10.606 0z" fill="#423e4f"/></g><g><path d="m211.954 256.37c.285-4.133 3.849-7.248 7.997-6.968 4.132.284 7.252 3.864 6.968 7.997-.495 7.201 5.461 13.179 12.684 12.684 4.142-.281 7.713 2.836 7.996 6.969.283 4.132-2.836 7.712-6.969 7.996-16.29 1.113-29.795-12.392-28.676-28.678z" fill="#423e4f"/></g></g><path d="m141.733 355.267c-32.423-32.423-84.992-32.423-117.416 0-32.423 32.423-32.423 84.992 0 117.416 32.423 32.423 84.992 32.423 117.416 0 32.423-32.424 32.423-84.993 0-117.416zm-32.508 84.907c-14.469 14.469-37.929 14.469-52.399 0-14.469-14.469-14.469-37.929 0-52.399 14.469-14.469 37.929-14.469 52.399 0 14.469 14.47 14.469 37.93 0 52.399z" fill="#ff6f7f"/><path d="m238.509 186.442c8.116-10.886 17.15-21.38 27.115-31.345 9.788-9.788 20.087-18.674 30.766-26.679l-3.295-3.295c-16.003-16.003-41.949-16.003-57.952 0-16.003 16.003-16.003 41.949 0 57.952z" fill="#00cd8c"/></g></svg>