<svg id="Capa_1" enable-background="new 0 0 497 497" height="512" viewBox="0 0 497 497" width="512" xmlns="http://www.w3.org/2000/svg"><g><path d="m175.891 44.257s-48.471 79.425-96.196 183.619l-9.656 76.387-42.029 51.007c-10.702 30.884-20.017 62.043-26.964 92.433-6.625 28.987 19.264 54.876 48.251 48.251 44.323-10.138 90.277-25.278 134.623-42.496l47.33-48.208 77.814-6.825c83.887-40.826 143.679-77.316 143.679-77.316z" fill="#f9ed80"/><circle cx="253.235" cy="166.496" fill="#ff6f7f" r="68.735"/><path d="m496.38 281.791c-9.52-59.28-44.066-125.196-100.02-181.151-55.955-55.955-121.87-90.5-181.151-100.02-20.132-3.233-40.154 6.371-50.192 24.119l-12.572 22.23c-13.679 24.188-4.462 55.041 20.402 67.448 41.13 20.525 82.85 50.439 121.073 88.662s68.137 79.943 88.662 121.073c12.408 24.864 43.26 34.082 67.448 20.402l22.23-12.572c17.749-10.037 27.353-30.059 24.12-50.191z" fill="#ffca8a"/><g><g><path d="m261.911 102.369c-2.929-2.929-2.929-7.677 0-10.606l12.751-12.752c2.929-2.929 7.678-2.93 10.606 0 2.929 2.929 2.929 7.677 0 10.606l-12.751 12.752c-2.928 2.929-7.677 2.93-10.606 0z" fill="#423e4f"/></g><g><path d="m394.631 235.09c-2.929-2.929-2.929-7.677 0-10.606l12.751-12.752c2.929-2.929 7.678-2.93 10.606 0 2.929 2.929 2.929 7.677 0 10.606l-12.751 12.752c-2.928 2.928-7.677 2.929-10.606 0z" fill="#423e4f"/></g><g><path d="m308.976 145.037c.284-4.132 3.873-7.253 7.996-6.968 4.133.284 7.252 3.864 6.969 7.997-1.054 15.352 11.661 28.045 26.995 26.994 4.134-.274 7.712 2.836 7.996 6.969.284 4.132-2.836 7.712-6.969 7.996-24.413 1.672-44.665-18.566-42.987-42.988z" fill="#423e4f"/></g></g><path d="m192.139 130.315c11.809-11.809 23.94-22.971 36.328-33.483l-52.576-52.576s-48.471 79.425-96.196 183.619l-9.656 76.387-42.029 51.008c-10.702 30.884-20.017 62.043-26.964 92.433-5.835 25.528 13.551 48.641 38.059 49.271-12.748-114.734 41.437-255.062 153.034-366.659z" fill="#f9d888"/><path d="m101.319 242.507c-6.406-6.406-13.768-11.29-21.624-14.631-18.253 39.862-36.396 83.346-51.685 127.394 24.58 9.448 53.489 4.265 73.31-15.556 26.838-26.838 26.838-70.369-.001-97.207z" fill="#ff6f7f"/><path d="m292.128 370.591c-26.838-26.838-70.369-26.838-97.208 0-22.463 22.463-26.125 56.593-11 82.867 44.44-17.249 87.25-36.584 125.144-55.033-3.223-10.185-8.86-19.759-16.936-27.834z" fill="#ff6f7f"/><g fill="#60d9a7"><path d="m306.689 282.509h-30.189c-10.718 0-19.405 8.687-19.405 19.405 0 10.717 8.688 19.404 19.404 19.404h30.189c10.718 0 19.405-8.687 19.405-19.405 0-10.717-8.688-19.404-19.404-19.404z"/><path d="m102.388 395.007h-30.189c-10.718 0-19.405 8.687-19.405 19.405 0 10.717 8.688 19.404 19.404 19.404h30.189c10.718 0 19.405-8.687 19.405-19.405 0-10.717-8.687-19.404-19.404-19.404z"/><path d="m174.244 236.311c-10.717 0-19.404 8.687-19.404 19.404v30.189c0 10.718 8.687 19.405 19.405 19.405 10.717 0 19.404-8.688 19.404-19.404v-30.189c0-10.718-8.687-19.406-19.405-19.405z"/></g><path d="m52.539 359.837c11.032-38.532 27.96-77.547 50.517-115.505-.571-.614-1.139-1.229-1.736-1.826-6.406-6.406-13.768-11.29-21.624-14.63-18.254 39.862-36.397 83.346-51.686 127.394 7.879 3.029 16.202 4.545 24.529 4.567z" fill="#fc5c70"/><path d="m172.848 114.418c7.61 3.798 15.241 7.921 22.866 12.355 36.894-36.292 76.832-66.363 117.882-89.881-33-18.893-66.644-31.174-98.387-36.272-20.132-3.233-40.154 6.371-50.192 24.119l-12.572 22.23c-13.679 24.189-4.461 55.041 20.403 67.449z" fill="#ffbe73"/></g></svg>