<svg id="Capa_1" enable-background="new 0 0 497 497" height="512" viewBox="0 0 497 497" width="512" xmlns="http://www.w3.org/2000/svg"><g><circle cx="248.5" cy="119.043" fill="#ffb25a" r="119.043"/><ellipse cx="248.5" cy="119.042" fill="#ff9c20" rx="77.77" ry="77.77" transform="matrix(.383 -.924 .924 .383 43.422 303.071)"/><ellipse cx="248.5" cy="119.042" fill="#ffb25a" rx="36.497" ry="36.497" transform="matrix(.924 -.383 .383 .924 -26.64 104.159)"/><circle cx="343.921" cy="213.185" fill="#ffbe73" r="119.043"/><ellipse cx="343.921" cy="213.185" fill="#ffca8a" rx="77.77" ry="77.77" transform="matrix(.924 -.383 .383 .924 -55.403 147.841)"/><ellipse cx="343.921" cy="213.185" fill="#ffbe73" rx="36.497" ry="36.497" transform="matrix(.383 -.924 .924 .383 15.351 449.344)"/><path d="m122.887 405.555v37.357c0 29.872 24.216 54.088 54.088 54.088h143.05c29.872 0 54.088-24.216 54.088-54.088v-37.357l-125.613-28.71z" fill="#ff6f7f"/><circle cx="153.079" cy="213.185" fill="#ffca8a" r="119.043"/><ellipse cx="153.079" cy="213.185" fill="#ffbe73" rx="77.77" ry="77.77" transform="matrix(.383 -.924 .924 .383 -102.459 273.029)"/><ellipse cx="153.079" cy="213.185" fill="#ffca8a" rx="36.497" ry="36.497" transform="matrix(.924 -.383 .383 .924 -69.93 74.809)"/><path d="m489.925 264.953c-2.435 8.327-5.788 17.758-10.401 27.89l-231.024 24.456-231.024-24.456c-4.612-10.132-7.966-19.563-10.401-27.89-5.252-17.953 8.255-35.907 26.962-35.907h428.927c18.706 0 32.213 17.954 26.961 35.907z" fill="#ff6f7f"/><path d="m105.02 262.7c0-11.406.586-22.638 1.712-33.654h-72.695c-18.707 0-32.213 17.954-26.961 35.907 2.435 8.327 5.789 17.757 10.401 27.89l89.922 9.519c-1.565-12.931-2.379-26.176-2.379-39.662z" fill="#fc5c70"/><path d="m137.142 402.297-14.255 3.258v37.357c0 29.872 24.216 54.088 54.088 54.088h44.931c-34.774-20.886-64.159-53.875-84.764-94.703z" fill="#fc5c70"/><path d="m479.524 292.843c-15.787 34.638-46.329 77.469-105.411 112.716h-251.226c-59.082-35.247-89.624-78.078-105.411-112.716z" fill="#6a647f"/><g><g><path d="m157.019 358.129c-4.143 0-7.5-3.358-7.5-7.5v-17.579c0-4.142 3.357-7.5 7.5-7.5s7.5 3.358 7.5 7.5v17.579c0 4.142-3.357 7.5-7.5 7.5z" fill="#423e4f"/></g><g><path d="m339.981 358.129c-4.143 0-7.5-3.358-7.5-7.5v-17.579c0-4.142 3.357-7.5 7.5-7.5s7.5 3.358 7.5 7.5v17.579c0 4.142-3.357 7.5-7.5 7.5z" fill="#423e4f"/></g><g><path d="m248.5 368.594c-11.411 0-22.263-4.942-29.772-13.56-2.722-3.123-2.396-7.86.727-10.582 3.121-2.721 7.859-2.396 10.582.727 4.66 5.348 11.391 8.415 18.464 8.415 7.074 0 13.805-3.067 18.465-8.415 2.722-3.123 7.457-3.448 10.582-.727 3.122 2.721 3.448 7.459.727 10.582-7.512 8.617-18.364 13.56-29.775 13.56z" fill="#423e4f"/></g></g><path d="m106.403 292.843h-88.927c15.787 34.638 46.329 77.469 105.411 112.716h15.945c-17.235-33.045-28.658-71.396-32.429-112.716z" fill="#5c586f"/></g></svg>