<svg height="512pt" viewBox="0 -26 512 512" width="512pt" xmlns="http://www.w3.org/2000/svg"><path d="m452.542969 86.234375h-336.390625c-32.699219 0-59.457032 26.757813-59.457032 59.457031 0 23.273438 13.554688 43.527344 33.152344 53.273438 14.445313 7.183594 23.738282 21.746094 23.738282 37.875v168.375c0 29.710937 24.082031 53.792968 53.789062 53.792968h233.945312c29.707032 0 53.792969-24.082031 53.792969-53.792968v-168.375c0-16.128906 9.292969-30.691406 23.734375-37.875 19.601563-9.746094 33.152344-30 33.152344-53.269532 0-32.703124-26.757812-59.460937-59.457031-59.460937zm0 0" fill="#f9ba75"/><path d="m476.789062 360.300781c0 39.34375-31.894531 71.238281-71.238281 71.238281s-71.238281-31.894531-71.238281-71.238281 31.894531-71.238281 71.238281-71.238281 71.238281 31.894531 71.238281 71.238281zm0 0" fill="#ff737d"/><path d="m463.046875 211.753906c0-22.492187-28.511719-40.199218-35.101563-60.492187-6.828124-21.035157 5.589844-52.074219-7.148437-69.582031-12.867187-17.679688-46.3125-15.398438-63.996094-28.265626-17.507812-12.742187-25.601562-45.324218-46.632812-52.152343-20.292969-6.589844-45.902344 14.796875-68.390625 14.796875-22.492188 0-48.097656-21.386719-68.390625-14.796875-21.035157 6.828125-29.125 39.410156-46.632813 52.152343-17.683594 12.867188-51.125 10.585938-63.996094 28.265626-7.613281 10.464843-6.242187 25.765624-5.363281 40.871093l299.40625 247.542969c17.679688-12.867188 51.125-10.585938 63.996094-28.269531 12.738281-17.503907.320313-48.546875 7.148437-69.578125 6.589844-20.292969 35.101563-38.003906 35.101563-60.492188zm0 0" fill="#b2e59c"/><path d="m463.046875 211.753906c0-22.492187-28.511719-40.199218-35.101563-60.492187-6.828124-21.035157 5.589844-52.074219-7.148437-69.582031-12.867187-17.679688-46.3125-15.398438-63.996094-28.265626-2.746093-2-5.261719-4.488281-7.628906-7.285156-103.984375 28.765625-173.628906 13.171875-212.117187-3.355468-3.140626 4.167968-6.5 7.871093-10.300782 10.640624-17.683594 12.867188-51.125 10.585938-63.996094 28.265626-7.613281 10.464843-6.242187 25.765624-5.363281 40.871093l299.40625 247.542969c17.679688-12.867188 51.125-10.585938 63.996094-28.269531 12.738281-17.503907.320313-48.542969 7.148437-69.578125 6.589844-20.292969 35.101563-38.003906 35.101563-60.492188zm0 0" fill="#9ad880"/><path d="m395.847656 86.234375h-336.390625c-32.699219 0-59.457031 26.757813-59.457031 59.460937 0 23.269532 13.550781 43.523438 33.152344 53.269532 14.441406 7.183594 23.734375 21.746094 23.734375 37.875v168.378906c0 29.707031 24.085937 53.789062 53.792969 53.789062h233.945312c29.707031 0 53.789062-24.082031 53.789062-53.789062v-168.378906c0-16.128906 9.292969-30.691406 23.738282-37.875 19.597656-9.746094 33.152344-30 33.152344-53.269532 0-32.703124-26.757813-59.460937-59.457032-59.460937zm0 0" fill="#ffdaaa"/><path d="m113.074219 157.417969c-.382813-58.984375 58.027343-69.613281 88.113281-71.179688h-141.730469c-32.699219-.003906-59.457031 26.753907-59.457031 59.457031 0 23.269532 13.550781 43.523438 33.152344 53.269532 14.441406 7.183594 23.734375 21.746094 23.734375 37.875v168.378906c0 29.707031 24.085937 53.789062 53.792969 53.789062h89.648437c-26.367187-219.878906-86.75-223.378906-87.253906-301.589843zm0 0" fill="#ffcb8d"/><g fill="#57565c"><path d="m310.742188 263.785156c-4.265626 0-7.726563-3.457031-7.726563-7.726562v-12.824219c0-4.269531 3.460937-7.726563 7.726563-7.726563 4.269531 0 7.726562 3.457032 7.726562 7.726563v12.824219c0 4.269531-3.457031 7.726562-7.726562 7.726562zm0 0"/><path d="m144.558594 263.785156c-4.265625 0-7.726563-3.457031-7.726563-7.726562v-12.824219c0-4.269531 3.460938-7.726563 7.726563-7.726563 4.269531 0 7.726562 3.457032 7.726562 7.726563v12.824219c0 4.269531-3.457031 7.726562-7.726562 7.726562zm0 0"/><path d="m227.652344 271.875c-10 0-20-3.234375-28.34375-9.707031-3.375-2.617188-3.984375-7.46875-1.371094-10.839844 2.613281-3.375 7.46875-3.984375 10.839844-1.371094 11.113281 8.621094 26.632812 8.621094 37.746094 0 3.371093-2.613281 8.226562-2.003906 10.839843 1.371094 2.617188 3.371094 2.003907 8.222656-1.367187 10.839844-8.34375 6.472656-18.34375 9.707031-28.34375 9.707031zm0 0"/></g></svg>