<?xml version="1.0" encoding="iso-8859-1"?>
<!-- Generator: Adobe Illustrator 19.0.0, SVG Export Plug-In . SVG Version: 6.00 Build 0)  -->
<svg version="1.1" id="Capa_1" xmlns="http://www.w3.org/2000/svg" xmlns:xlink="http://www.w3.org/1999/xlink" x="0px" y="0px"
	 viewBox="0 0 512.001 512.001" style="enable-background:new 0 0 512.001 512.001;" xml:space="preserve">
<path style="fill:#BDC0C3;" d="M95.291,169.602c-20.677-20.677-51.726-26.182-72.646-27.346c-12.769-0.711-23.321,9.841-22.61,22.61
	c1.165,20.92,6.669,51.969,27.346,72.646c4.15,4.15,8.718,7.689,13.538,10.704c5.718,3.577,5.718,11.993,0,15.57
	c-4.82,3.015-9.388,6.554-13.538,10.704C6.703,295.167,1.199,326.216,0.034,347.136c-0.711,12.769,9.841,23.321,22.61,22.61
	c20.92-1.165,51.969-6.669,72.646-27.346c25.984-25.984,28.007-68.339,27.568-86.399
	C123.297,237.941,121.275,195.586,95.291,169.602z"/>
<path style="opacity:0.1;enable-background:new    ;" d="M105.345,182.141L105.345,182.141
	c-22.815,21.598-34.997,46.907-34.997,73.86c0,3.861,0.252,7.688,0.749,11.476c1.346,10.253-3.692,20.535-13.007,25.026
	c-14.248,6.869-29.762-4.232-33.201-15.376C6.261,297.739,1.15,327.09,0.034,347.141c-0.712,12.803,9.94,23.321,22.742,22.598
	c20.919-1.181,51.88-6.705,72.514-27.339c25.984-25.984,28.007-68.339,27.568-86.399
	C123.232,240.624,121.81,207.642,105.345,182.141z"/>
<g style="opacity:0.1;">
	<path d="M71.194,219.065c-2.104,0-4.196-0.88-5.679-2.598c-4.786-5.54-22.696-24.867-29.872-31.408
		c-3.062-2.79-3.281-7.534-0.491-10.596c2.791-3.061,7.534-3.281,10.595-0.49c7.688,7.009,26.026,26.793,31.119,32.689
		c2.707,3.135,2.361,7.87-0.773,10.578C74.676,218.465,72.931,219.065,71.194,219.065z"/>
	<path d="M40.697,339.986c-2.036,0-4.065-0.824-5.545-2.447c-2.79-3.062-2.571-7.806,0.491-10.596
		c7.176-6.541,25.086-25.868,29.872-31.408c2.707-3.135,7.443-3.482,10.579-0.773c3.134,2.708,3.48,7.443,0.773,10.578
		c-5.093,5.897-23.431,25.681-31.119,32.689C44.31,339.34,42.5,339.986,40.697,339.986z"/>
</g>
<g>
	<path style="fill:#BDC0C3;" d="M354.047,179.515c0-40.243-22.269-75.286-55.156-93.477c-23.172-12.817-51.595,4.211-51.595,30.692
		v62.785H354.047z"/>
	<path style="fill:#BDC0C3;" d="M354.047,332.487c0,40.243-22.269,75.286-55.156,93.477c-23.172,12.817-51.595-4.211-51.595-30.692
		v-62.785H354.047z"/>
</g>
<path style="opacity:0.1;enable-background:new    ;" d="M247.296,121.931v57.584h106.751c0-22.563-7.002-43.489-18.949-60.728
	c-9.61-0.671-19.393-1.015-29.312-1.015C285.806,117.771,266.185,119.192,247.296,121.931z"/>
<path style="opacity:0.1;enable-background:new    ;" d="M298.263,174.366c-0.11,0-0.221-0.002-0.332-0.007
	c-4.138-0.181-7.347-3.681-7.167-7.819c0.48-11.029-9.888-45.905-12.181-50.214c-1.942-3.648-0.576-8.199,3.067-10.152
	c3.642-1.953,8.17-0.608,10.133,3.029c3.138,5.813,14.586,43.747,13.967,57.989C305.574,171.219,302.254,174.366,298.263,174.366z"
	/>
<path style="opacity:0.1;enable-background:new    ;" d="M285.177,406.737c-1.203,0-2.423-0.289-3.556-0.901
	c-3.645-1.967-5.005-6.516-3.038-10.161c2.293-4.308,12.661-39.184,12.181-50.213c-0.18-4.139,3.029-7.639,7.167-7.819
	c4.15-0.169,7.639,3.028,7.819,7.167c0.619,14.242-10.829,52.177-13.967,57.989C290.428,405.311,287.845,406.737,285.177,406.737z"
	/>
<path style="opacity:0.1;enable-background:new    ;" d="M247.296,390.071v-57.584h106.751c0,22.563-7.002,43.489-18.949,60.728
	c-9.61,0.671-19.393,1.015-29.312,1.015C285.806,394.231,266.185,392.81,247.296,390.071z"/>
<path style="fill:#DCDEDF;" d="M469.908,252.408c9.523-5.616,22.025-11.032,34.978-14.2c4.959-1.213,7.488-6.7,5.254-11.29
	c-23.816-48.919-106.277-85-204.353-85c-116.694,0-211.292,51.077-211.292,114.084s94.599,114.084,211.292,114.084
	c99.633,0,183.146-37.237,205.438-87.34c1.975-4.439,0.053-9.625-4.311-11.76c-10.639-5.206-23.929-9.206-35.475-10.878
	C467.565,259.546,466.537,254.395,469.908,252.408z"/>
<path style="fill:#495059;" d="M432.502,231.013c-4.143,0-7.5-3.357-7.5-7.5v-14.997c0-4.143,3.357-7.5,7.5-7.5
	c4.142,0,7.5,3.357,7.5,7.5v14.997C440.002,227.655,436.645,231.013,432.502,231.013z"/>
<g>
	<path style="fill:#DA745E;" d="M368.957,310.034c-3.839,0-7.678-1.465-10.606-4.394l-78.067-78.066
		c-5.858-5.857-5.858-15.355,0-21.213c5.857-5.857,15.355-5.857,21.213,0l78.067,78.066c5.858,5.857,5.858,15.355,0,21.213
		C376.635,308.569,372.796,310.034,368.957,310.034z"/>
	<path style="fill:#DA745E;" d="M284.741,310.034c-3.839,0-7.678-1.465-10.606-4.394l-78.067-78.066
		c-5.858-5.857-5.858-15.355,0-21.213c5.857-5.857,15.355-5.857,21.213,0l78.067,78.066c5.858,5.857,5.858,15.355,0,21.213
		C292.419,308.569,288.58,310.034,284.741,310.034z"/>
</g>
<path style="opacity:0.1;enable-background:new    ;" d="M471.118,327.035c-224.475,15.307-287.605-112.269-259.986-173.05
	C141.968,172.73,94.494,211.369,94.494,256.001c0,63.007,94.599,114.084,211.292,114.084
	C372.738,370.085,432.411,353.27,471.118,327.035z"/>
<g style="opacity:0.1;">
	<path d="M218.756,335.76c-10.766,0-19.524-8.759-19.524-19.524s8.759-19.523,19.524-19.523c4.142,0,7.5,3.357,7.5,7.5
		s-3.358,7.5-7.5,7.5c-2.495,0-4.524,2.029-4.524,4.523c0,2.495,2.03,4.524,4.524,4.524c4.142,0,7.5,3.357,7.5,7.5
		C226.256,332.402,222.898,335.76,218.756,335.76z"/>
	<g>
		<path d="M157.741,269.535c-10.766,0-19.524-8.759-19.524-19.524c0-10.766,8.759-19.524,19.524-19.524c4.142,0,7.5,3.357,7.5,7.5
			s-3.358,7.5-7.5,7.5c-2.495,0-4.524,2.029-4.524,4.524s2.03,4.524,4.524,4.524c4.142,0,7.5,3.357,7.5,7.5
			S161.883,269.535,157.741,269.535z"/>
		<path d="M157.741,293.584c-10.766,0-19.524-8.759-19.524-19.524c0-10.766,8.759-19.524,19.524-19.524c4.142,0,7.5,3.357,7.5,7.5
			s-3.358,7.5-7.5,7.5c-2.495,0-4.524,2.029-4.524,4.524s2.03,4.524,4.524,4.524c4.142,0,7.5,3.357,7.5,7.5
			S161.883,293.584,157.741,293.584z"/>
	</g>
	<path d="M430.691,331.944c-10.766,0-19.524-8.758-19.524-19.523c0-10.766,8.759-19.524,19.524-19.524c4.143,0,7.5,3.357,7.5,7.5
		s-3.357,7.5-7.5,7.5c-2.495,0-4.524,2.029-4.524,4.524c0,2.494,2.029,4.523,4.524,4.523c4.143,0,7.5,3.357,7.5,7.5
		S434.834,331.944,430.691,331.944z"/>
	<g>
		<path d="M372.083,203.564c-10.766,0-19.524-8.759-19.524-19.524c0-10.766,8.759-19.524,19.524-19.524c4.143,0,7.5,3.357,7.5,7.5
			s-3.357,7.5-7.5,7.5c-2.495,0-4.524,2.029-4.524,4.524s2.029,4.524,4.524,4.524c4.143,0,7.5,3.357,7.5,7.5
			C379.583,200.206,376.226,203.564,372.083,203.564z"/>
		<path d="M372.083,227.612c-10.766,0-19.524-8.759-19.524-19.524c0-10.766,8.759-19.524,19.524-19.524c4.143,0,7.5,3.357,7.5,7.5
			s-3.357,7.5-7.5,7.5c-2.495,0-4.524,2.029-4.524,4.524s2.029,4.524,4.524,4.524c4.143,0,7.5,3.358,7.5,7.5
			C379.583,224.255,376.226,227.612,372.083,227.612z"/>
	</g>
</g>
<g>
</g>
<g>
</g>
<g>
</g>
<g>
</g>
<g>
</g>
<g>
</g>
<g>
</g>
<g>
</g>
<g>
</g>
<g>
</g>
<g>
</g>
<g>
</g>
<g>
</g>
<g>
</g>
<g>
</g>
</svg>
