<svg height="512pt" viewBox="-56 0 512 512.00021" width="512pt" xmlns="http://www.w3.org/2000/svg"><path d="m265.851562 455.007812h52.421876c45.058593 0 81.710937-36.65625 81.710937-81.710937v-76.324219c0-45.058594-36.652344-81.710937-81.710937-81.710937h-52.421876c-13.039062 0-23.609374 10.570312-23.609374 23.609375 0 13.035156 10.570312 23.605468 23.609374 23.605468h52.421876c19.019531 0 34.496093 15.476563 34.496093 34.492188v76.328125c0 19.019531-15.476562 34.492187-34.496093 34.492187h-52.421876c-13.039062 0-23.609374 10.570313-23.609374 23.609376 0 13.039062 10.570312 23.609374 23.609374 23.609374zm0 0" fill="#5bd5ff"/><path d="m2.539062 15.453125 9.859376-11.65625c3.792968-4.480469 10.476562-5.082031 15.003906-1.351563l63.183594 52.035157c2.398437 2.027343 4.238281 4.640625 5.339843 7.582031l25.878907 56.027344-34.394532 12.867187-24.203125-51.535156-59.292969-48.757813c-4.621093-3.800781-5.242187-10.644531-1.375-15.210937zm0 0" fill="#e9e9e9"/><path d="m318.273438 455.007812c7.0625 0 13.914062-.902343 20.453124-2.59375v-51.363281c-5.726562 4.230469-12.800781 6.738281-20.453124 6.738281h-52.421876c-13.039062 0-23.609374 10.570313-23.609374 23.609376 0 13.039062 10.570312 23.609374 23.609374 23.609374zm0 0" fill="#04bdfc"/><path d="m265.851562 215.261719c-13.039062 0-23.609374 10.570312-23.609374 23.609375 0 13.035156 10.570312 23.605468 23.609374 23.605468h52.421876c7.652343 0 14.726562 2.507813 20.453124 6.742188v-23.3125c0-9.824219-1.253906-19.523438-3.636718-28.898438-5.429688-1.140624-11.050782-1.75-16.816406-1.75h-52.421876zm0 0" fill="#04bdfc"/><path d="m40.644531 175.976562 21.089844-15.773437c1.601563-5.25 94.988281-27.78125 94.988281-27.78125l94.992188 27.78125 21.085937 15.773437c22.042969 16.488282 35.019531 42.40625 35.019531 69.933594v207.949219c0 13.183594-4.480468 25.976563-12.707031 36.28125-11.03125 13.8125-27.75 21.859375-45.429687 21.859375h-185.917969c-17.683594 0-34.402344-8.046875-45.433594-21.859375-8.226562-10.304687-12.707031-23.097656-12.707031-36.28125v-207.949219c0-27.527344 12.976562-53.445312 35.019531-69.933594zm0 0" fill="#5bd5ff"/><path d="m49.238281 490.140625c-8.226562-10.304687-12.707031-23.09375-12.707031-36.28125v-207.949219c0-27.527344 12.976562-53.445312 35.019531-69.933594l21.089844-15.773437c1.167969-3.832031 51.28125-16.882813 78.234375-23.640625l-14.152344-4.140625s-93.386718 22.53125-94.988281 27.78125l-21.089844 15.773437c-22.042969 16.488282-35.019531 42.40625-35.019531 69.933594v207.949219c0 13.183594 4.480469 25.976563 12.707031 36.28125 11.03125 13.8125 27.75 21.859375 45.433594 21.859375h30.902344c-17.679688 0-34.398438-8.046875-45.429688-21.859375zm0 0" fill="#04bdfc"/><path d="m245.167969 245.910156h-176.886719c-11.425781 0-20.683594 9.257813-20.683594 20.683594v186.898438c0 3.234374.828125 6.449218 2.59375 9.160156 3.039063 4.660156 8.097656 7.375 13.570313 7.375h185.921875c5.472656 0 10.527344-2.710938 13.566406-7.371094 1.769531-2.710938 2.601562-5.925781 2.601562-9.160156v-186.902344c0-11.425781-9.261718-20.683594-20.683593-20.683594zm0 0" fill="#918bd7"/><path d="m81.097656 462.652344c-1.765625-2.710938-2.59375-5.925782-2.59375-9.160156v-186.898438c0-11.425781 9.257813-20.683594 20.683594-20.683594h-30.90625c-11.425781 0-20.683594 9.257813-20.683594 20.683594v186.898438c0 3.234374.828125 6.449218 2.59375 9.160156 3.039063 4.660156 8.097656 7.375 13.574219 7.375h30.902344c-5.472657 0-10.53125-2.714844-13.570313-7.375zm0 0" fill="#827cd1"/><g fill="#333941"><path d="m98.574219 368.148438c-4.269531 0-7.726563-3.460938-7.726563-7.726563v-10.523437c0-4.269532 3.457032-7.726563 7.726563-7.726563 4.265625 0 7.726562 3.457031 7.726562 7.726563v10.523437c0 4.265625-3.460937 7.726563-7.726562 7.726563zm0 0"/><path d="m214.871094 368.148438c-4.265625 0-7.726563-3.460938-7.726563-7.726563v-10.523437c0-4.269532 3.460938-7.726563 7.726563-7.726563 4.269531 0 7.726562 3.457031 7.726562 7.726563v10.523437c0 4.265625-3.457031 7.726563-7.726562 7.726563zm0 0"/><path d="m156.722656 373.765625c-7.824218 0-15.171875-3.277344-20.167968-8.992187-2.808594-3.210938-2.480469-8.09375.730468-10.902344 3.210938-2.808594 8.09375-2.480469 10.902344.734375 2.0625 2.355469 5.171875 3.707031 8.535156 3.707031 3.363282 0 6.476563-1.351562 8.535156-3.707031 2.808594-3.214844 7.6875-3.542969 10.902344-.734375 3.210938 2.808594 3.542969 7.691406.730469 10.902344-4.992187 5.714843-12.34375 8.992187-20.167969 8.992187zm0 0"/></g><path d="m56.589844 73.980469 6.617187 5.441406 24.203125 51.535156 34.398438-12.867187-20.488282-44.347656h-39.585937c-1.734375 0-3.449219.089843-5.144531.238281zm0 0" fill="#d3d2d8"/><path d="m61.734375 104.644531h189.980469c15.339844 0 27.777344 12.4375 27.777344 27.777344 0 15.34375-12.4375 27.78125-27.777344 27.78125h-189.980469c-15.34375 0-27.777344-12.4375-27.777344-27.78125 0-15.339844 12.433594-27.777344 27.777344-27.777344zm0 0" fill="#04bdfc"/><path d="m64.859375 132.421875c0-15.339844 12.4375-27.777344 27.78125-27.777344h-30.90625c-15.34375 0-27.777344 12.4375-27.777344 27.777344 0 15.34375 12.433594 27.78125 27.777344 27.78125h30.90625c-15.34375 0-27.78125-12.4375-27.78125-27.78125zm0 0" fill="#04a4fa"/></svg>