<svg id="Capa_1" enable-background="new 0 0 497 497" height="512" viewBox="0 0 497 497" width="512" xmlns="http://www.w3.org/2000/svg"><g><path d="m473.137 57.364c-89.737-52.16-206.676-39.811-283.534 37.047l-2.689 2.689c-76.858 76.858-89.207 193.796-37.047 283.534 15.802 27.186 53.042 32.077 75.277 9.842l257.835-257.835c22.234-22.235 17.343-59.475-9.842-75.277z" fill="#ffca8a"/><path d="m399.976 85.629c-.078-.131-.155-.262-.231-.394l-.008-.023c-11.162-19.235-33.825-28.617-55.317-22.902-7.372 1.964-14.983 2.165-22.27.716-7.28-1.44-14.236-4.529-20.306-9.151l-.054-.054c-17.656-13.465-42.129-13.457-59.784.008l-.062.046c-12.125 9.244-27.839 12.356-42.576 8.435-17.286-4.591-35.327.57-47.536 12.78-2.974 2.974-5.6 6.355-7.78 10.122l-.008.023c-7.642 13.172-20.945 22.07-36.043 24.103l-.116.023c-21.993 2.966-39.286 20.259-42.252 42.252l-.023.116c-2.034 15.098-10.931 28.402-24.111 36.051h-.015c-19.235 11.162-28.617 33.825-22.902 55.317 1.964 7.372 2.165 14.983.716 22.27-1.44 7.279-4.537 14.243-9.151 20.306l-.046.062c-13.465 17.656-13.473 42.129-.008 59.784l.046.062c9.252 12.117 12.364 27.832 8.443 42.568-4.591 17.286.57 35.327 12.78 47.536 2.973 2.973 6.355 5.6 10.122 7.78l.023.008c.132.076.263.153.394.231 21.889 12.97 49.705 9.816 67.696-8.175l282.202-282.202c17.993-17.993 21.147-45.809 8.177-67.698z" fill="#60d9a7"/><path d="m205.197 81.201c6.638-6.638 13.406-12.999 20.27-19.11-8.419 2.38-17.425 2.527-26.097.22-17.286-4.591-35.327.57-47.536 12.78-2.974 2.973-5.6 6.355-7.78 10.122l-.008.023c-7.642 13.172-20.945 22.07-36.043 24.103l-.116.023c-21.993 2.966-39.286 20.259-42.252 42.252l-.023.115c-2.034 15.098-10.931 28.402-24.111 36.051h-.015c-19.235 11.162-28.617 33.825-22.902 55.317 1.964 7.372 2.165 14.983.716 22.27-1.44 7.279-4.537 14.243-9.151 20.306l-.046.062c-13.465 17.656-13.473 42.129-.008 59.784l.046.062c9.252 12.117 12.364 27.832 8.443 42.568-4.591 17.286.57 35.327 12.78 47.536 2.973 2.973 6.355 5.6 10.122 7.78l.023.008c.132.076.263.153.394.231 21.889 12.97 49.705 9.816 67.696-8.175l6.423-6.423c-61.838-83.374-24.869-233.861 89.175-347.905z" fill="#00cd8c"/><path d="m406.366 124.135c-89.737-52.16-206.676-39.811-283.534 37.047l-2.689 2.689c-76.858 76.858-89.207 193.796-37.047 283.534 15.802 27.186 53.042 32.077 75.277 9.842l257.835-257.835c22.235-22.235 17.343-59.476-9.842-75.277z" fill="#ffdebb"/><g><g><g><ellipse cx="145.371" cy="350.797" fill="#ff8997" rx="42.189" ry="33.597" transform="matrix(.707 -.707 .707 .707 -205.473 205.54)"/></g><g><ellipse cx="307.069" cy="189.098" fill="#ff8997" rx="42.189" ry="33.597" transform="matrix(.707 -.707 .707 .707 -43.774 272.515)"/></g></g></g><g><path d="m134.584 315.845-12.194-12.195c-2.929-2.929-2.929-7.678 0-10.606 2.929-2.929 7.678-2.929 10.606 0l12.195 12.195c2.929 2.929 2.929 7.678 0 10.606-2.929 2.929-7.678 2.929-10.607 0z" fill="#423e4f"/></g><g><path d="m261.511 188.918-12.195-12.195c-2.929-2.929-2.929-7.678 0-10.606s7.678-2.93 10.606 0l12.195 12.195c2.929 2.929 2.929 7.678 0 10.606-2.928 2.928-7.677 2.93-10.606 0z" fill="#423e4f"/></g><g><path d="m185.742 270.929c-4.132-.284-7.252-3.864-6.968-7.997.284-4.132 3.863-7.257 7.997-6.968 14.467.996 26.461-10.988 25.467-25.467-.284-4.133 2.836-7.713 6.968-7.997 4.125-.274 7.712 2.836 7.997 6.968 1.621 23.611-17.973 43.077-41.461 41.461z" fill="#423e4f"/></g><path d="m128.962 444.128c-69.253-69.253-51.807-202.263 34.824-315.669-14.537 9.16-28.292 20.06-40.954 32.722l-2.689 2.689c-76.858 76.858-89.207 193.796-37.047 283.534 14.379 24.737 46.505 31.007 68.928 15.185-8.286-5.273-16.01-11.409-23.062-18.461z" fill="#ffca8a"/></g></svg>