<svg xmlns="http://www.w3.org/2000/svg" viewBox="0 0 500 500"><defs><style>.cls-1{fill:#404040;fill-rule:evenodd;}.cls-2{fill:#0e7147;}</style></defs><g id="Layer_2" data-name="Layer 2"><g id="logos"><g id="circle-social"><path id="profile" class="cls-1" d="M364.55,317.83c-11.62-34.1-45.6-65.43-84.19-76.29h0a73.62,73.62,0,1,0-60.33-.09l-.36.1c-38.59,10.86-72.57,42.19-84.19,76.29,0,0-15,59.91-3.76,72.75s26.93,11.13,35.11-2.89c3.64-17.63-.15-29.87,7.62-57.76,0,0,14.59-46.41,75.32-52.12l.26,0,.26,0c60.73,5.71,75.32,52.12,75.32,52.12,7.77,27.89,4,40.13,7.62,57.76,8.18,14,23.84,15.72,35.11,2.89S364.55,317.83,364.55,317.83ZM250.26,140.72a33.62,33.62,0,1,1-33.61,33.62A33.66,33.66,0,0,1,250.26,140.72Z"/><path class="cls-2" d="M250,0C111.93,0,0,111.93,0,250S111.93,500,250,500,500,388.07,500,250,388.07,0,250,0Zm0,460C134.21,460,40,365.79,40,250S134.21,40,250,40s210,94.21,210,210S365.79,460,250,460Z"/></g></g></g></svg>