<svg xmlns="http://www.w3.org/2000/svg" viewBox="0 0 500 500"><defs><style>.cls-1,.cls-2{fill:#404040;}.cls-1{fill-rule:evenodd;}.cls-3{fill:#0e7147;}</style></defs><g id="Layer_2" data-name="Layer 2"><g id="logos"><g id="circle-location"><g id="pin"><path class="cls-1" d="M354,197.49h0a104.32,104.32,0,0,0-208.34,8s-.06,1.13.06,3.35a104,104,0,0,0,6.64,33.5c9.17,30.59,30.78,80.17,81.64,148.62h0a20,20,0,0,0,31.07,1h0l.07-.09a20.78,20.78,0,0,0,1.87-2.59c10.57-14.78,61.84-88.18,80.55-147a103.5,103.5,0,0,0,6.36-28.35A71.87,71.87,0,0,0,354,197.49Zm-45.23,27.32c-11.88,34.72-38.31,82.38-51.45,109.86a8.41,8.41,0,0,1-15.07.17c-31.83-62.41-46.77-93.14-52.49-112.14-9.36-31.1,6.33-64.58,36.5-76.59a69.82,69.82,0,0,1,25.62-5,57.52,57.52,0,0,1,19,3.35C303.43,155.94,319.92,192.11,308.73,224.81Z"/><circle class="cls-2" cx="250" cy="207.55" r="30"/></g><path class="cls-3" d="M250,0C111.93,0,0,111.93,0,250S111.93,500,250,500,500,388.07,500,250,388.07,0,250,0Zm0,460C134.21,460,40,365.79,40,250S134.21,40,250,40s210,94.21,210,210S365.79,460,250,460Z"/></g></g></g></svg>