<svg xmlns="http://www.w3.org/2000/svg" viewBox="0 0 500 500"><defs><style>.cls-1{fill:#404040;}.cls-2{fill:#0e7147;}</style></defs><g id="Layer_2" data-name="Layer 2"><g id="logos"><g id="circle-bio"><path id="messages" class="cls-1" d="M311.83,103.3H188.17a86.79,86.79,0,0,0-86.78,86.79v62h0V254h.09a20,20,0,0,0,39.81,0h.1V252.1h0v-62a46.83,46.83,0,0,1,46.78-46.79H311.83a46.83,46.83,0,0,1,46.78,46.79V254a46.83,46.83,0,0,1-46.78,46.79H188.17s-86.78-6.33-86.78,75.89a20,20,0,0,0,40,0s-2-35.89,46.78-35.89H311.83A86.79,86.79,0,0,0,398.61,254V190.09A86.79,86.79,0,0,0,311.83,103.3Z"/><path class="cls-2" d="M250,0C111.93,0,0,111.93,0,250S111.93,500,250,500,500,388.07,500,250,388.07,0,250,0Zm0,460C134.21,460,40,365.79,40,250S134.21,40,250,40s210,94.21,210,210S365.79,460,250,460Z"/></g></g></g></svg>