<svg xmlns="http://www.w3.org/2000/svg" viewBox="0 0 299.72 225"><defs><style>.cls-1{fill:#404040;}</style></defs><g id="Layer_2" data-name="Layer 2"><g id="logos"><path id="contact" class="cls-1" d="M279.72,0H20A20,20,0,0,0,0,20V205a20,20,0,0,0,20,20H279.72a20,20,0,0,0,20-20V20A20,20,0,0,0,279.72,0ZM153.37,107.56s-3.48,3-6.81,0L76.34,44c-.19-.17-4.29-4,4-4h140.5c6.45.46,2.61,4,2.6,4Zm0,0-3.4,3.09,0,0ZM48.15,185C40.54,182.76,40,173.69,40,173.69V71.62c.25-5.34,2.43-4.36,3.48-3.56l91.26,82.36h0a20,20,0,0,0,30.5,0h0L255.6,68.75v0s4-4.51,4,4a14,14,0,0,0,.1,2v99c-.21.19-.32.79-.32,1.94,0,8.47-7,9.24-8.83,9.29Z"/></g></g></svg>