<svg xmlns="http://www.w3.org/2000/svg" viewBox="0 0 300 300"><defs><style>.cls-1{fill:#404040;fill-rule:evenodd;}</style></defs><g id="Layer_2" data-name="Layer 2"><g id="logos"><g id="edit"><path class="cls-1" d="M211.39,39.5l49.1,49.08a23.14,23.14,0,1,0,32.73-32.72L244.12,6.78A23.14,23.14,0,0,0,211.39,39.5Z"/><path class="cls-1" d="M250.27,98.79l-50.5-50.48-.07.07a23.15,23.15,0,0,0-31.27,1.33L6.77,211.31A23,23,0,0,0,.13,230.09v43.66h.1a23.09,23.09,0,0,0,26.15,25.86V300h46.3v-.16a23.09,23.09,0,0,0,15.9-6.76l0,0,161.66-161.6A23.13,23.13,0,0,0,250.27,98.79ZM62.54,253.73H46.42V237.12L184.8,98.79l16.37,16.36Z"/></g></g></g></svg>