<svg xmlns="http://www.w3.org/2000/svg" viewBox="0 0 299.31 300"><defs><style>.cls-1{fill:#6988f2;}</style></defs><g id="Layer_2" data-name="Layer 2"><g id="logos"><g id="gallery-b"><path class="cls-1" d="M239.31,0H60S0,.69,0,60V240s-.28,60,60,60H239.31s60-1.45,60-60V60S299.23,0,239.31,0ZM48.05,43.45A38.7,38.7,0,0,1,60.43,40H239.31c12.21,0,14.57,4.12,16.13,6.84a34.53,34.53,0,0,1,3.87,13.69v96l-39.23-39.81h0a19.93,19.93,0,0,0-29.81,0h0l-.1.12a20.65,20.65,0,0,0-2.43,3.43l-43.06,60.54-38.33-27.13h0a19.94,19.94,0,0,0-27.39,4.24L40,193.56V60C40,47.53,44.47,45.27,48.05,43.45Zm203,212.9A40.34,40.34,0,0,1,238.46,260H60c-12.36,0-14.69-4.07-16.23-6.76a29,29,0,0,1-2.93-7.9l.11.18L95.9,195l41.79,29.82h0a20,20,0,0,0,29.65-7.45l40.07-56.53,51.89,52.53V240C259.31,251.22,255.59,254.05,251.08,256.35Z"/><path class="cls-1" d="M107.13,145.73a50,50,0,1,0-50-50A50,50,0,0,0,107.13,145.73Zm0-70a20,20,0,1,1-20,20A20,20,0,0,1,107.13,75.73Z"/></g></g></g></svg>