<svg xmlns="http://www.w3.org/2000/svg" viewBox="0 0 299.05 299.04"><defs><style>.cls-1{fill:#404040;}</style></defs><g id="Layer_2" data-name="Layer 2"><g id="logos"><path id="locate" class="cls-1" d="M294.64,4.4c-4.72-4.72-12-5.58-18.63-2.88v0l-259.82,105h0a22.7,22.7,0,0,0-11,7.19c-5.77,6.8-6.87,16.11-2.64,22.46A14.65,14.65,0,0,0,11,142.23v0h0l58.43,17.91h0l3.59,1.1v0c.12,0,.25.06.37.09l47.54,14h0l8.85,29.2,27,83.51h0a14.65,14.65,0,0,0,6.06,8.46c6.35,4.23,15.66,3.13,22.46-2.65a22.63,22.63,0,0,0,7.19-11h0l105-259.8c.11-.27.22-.53.32-.8l.05-.11h0C300.14,15.76,299.15,8.91,294.64,4.4Zm-46,49.42-68,173.26c-.52,1.32-2.32,1.52-2.71.31l-11.37-35.16-10.76-35.06a15.39,15.39,0,0,0-.77-2.5l-.06-.22h0a14.48,14.48,0,0,0-8.66-8.28h0l-.21-.07L146,146,92.77,127.52a15.38,15.38,0,0,0-3.16-1.66h0l-.25-.08c-.48-.17-1-.32-1.46-.45L75.46,121.5c-2.14-.66-1.8-3.82.51-4.73L245.22,50.38A2.57,2.57,0,0,1,248.66,53.82Z"/></g></g></svg>