<svg xmlns="http://www.w3.org/2000/svg" viewBox="0 0 300 300"><defs><style>.cls-1{fill:#6988f2;}</style></defs><g id="Layer_2" data-name="Layer 2"><g id="logos"><path id="send-b" class="cls-1" d="M300,150a20,20,0,0,0-11.13-17.91h0L30.91,3.24h0A20,20,0,0,0,2,28.66v0H2l30.4,67.44h0a20,20,0,0,0,37.72-5,19.63,19.63,0,0,0-1-10.64h0L69,80.17a17.28,17.28,0,0,0-.71-1.58l-6.1-13.54a2.71,2.71,0,0,1,3.7-3.52l166.63,85.61a3.21,3.21,0,0,1,0,5.72L62,240.5a1.56,1.56,0,0,1-2.14-2l28-64.51A6.63,6.63,0,0,1,94,170h55.59c10.42,0,19.45-7.8,20.37-18.18A20,20,0,0,0,150,130H76.48a20,20,0,0,0-18.7,13h0L2,271.32v0a19.85,19.85,0,0,0-1.7,12.08A20,20,0,0,0,30.9,296.76h0L288.85,167.91c.27-.13.54-.25.8-.39l.11-.06h0A20,20,0,0,0,300,150Z"/></g></g></svg>