<svg xmlns="http://www.w3.org/2000/svg" viewBox="0 0 300 300"><defs><style>.cls-1{fill:#fd401d;}</style></defs><g id="Layer_2" data-name="Layer 2"><g id="logos"><g id="x-o"><path id="plus" class="cls-1" d="M202.46,79.23l-51,51a1.52,1.52,0,0,1-2.15.05L100.48,81.45A13.37,13.37,0,0,0,82,81.29c-5.58,5.24-5.88,13.82-.74,18.95l49.19,49.2a1.32,1.32,0,0,1,0,1.89L79.23,202.46c-5.17,5.17-5.73,13.44-1,18.56,5,5.36,13.58,5.28,18.94-.08l51.11-51.11a1.71,1.71,0,0,1,2.42-.06l48.7,48.7a13.37,13.37,0,0,0,18.53.16c5.58-5.24,5.88-13.82.74-18.95l-49-49.05a1.54,1.54,0,0,1,.05-2.2l51.22-51.22c5.36-5.36,5.44-13.94.08-18.94C215.9,73.5,207.63,74.06,202.46,79.23Z"/><path class="cls-1" d="M150,0A150,150,0,1,0,300,150,150,150,0,0,0,150,0Zm0,260A110,110,0,1,1,260,150,110.13,110.13,0,0,1,150,260Z"/></g></g></g></svg>